<?xml version="1.0" encoding="UTF-8" standalone="no"?>
<!-- Created with Inkscape (http://www.inkscape.org/) -->

<svg
   width="210mm"
   height="297mm"
   viewBox="0 0 210 297"
   version="1.1"
   id="svg1"
   inkscape:version="1.4.4 (dcaf3e7d9e, 2026-05-05)"
   sodipodi:docname="1940.svg"
   xmlns:inkscape="http://www.inkscape.org/namespaces/inkscape"
   xmlns:sodipodi="http://sodipodi.sourceforge.net/DTD/sodipodi-0.dtd"
   xmlns="http://www.w3.org/2000/svg"
   xmlns:svg="http://www.w3.org/2000/svg">
  <sodipodi:namedview
     id="namedview1"
     pagecolor="#ffffff"
     bordercolor="#000000"
     borderopacity="0.25"
     inkscape:showpageshadow="2"
     inkscape:pageopacity="0.0"
     inkscape:pagecheckerboard="0"
     inkscape:deskcolor="#d1d1d1"
     inkscape:document-units="mm"
     inkscape:zoom="1.1722683"
     inkscape:cx="341.21881"
     inkscape:cy="478.13286"
     inkscape:window-width="1671"
     inkscape:window-height="1050"
     inkscape:window-x="0"
     inkscape:window-y="0"
     inkscape:window-maximized="1"
     inkscape:current-layer="layer1" />
  <defs
     id="defs1">
    <rect
       x="281.09311"
       y="363.39254"
       width="238.78425"
       height="115.33511"
       id="rect2" />
    <rect
       x="304.57374"
       y="551.2533"
       width="205.90192"
       height="36.75022"
       id="rect1" />
    <filter
       inkscape:menu="Distort"
       inkscape:label="Chalk and Sponge"
       style="color-interpolation-filters:sRGB;"
       inkscape:menu-tooltip="Low turbulence gives sponge look and high turbulence chalk"
       id="filter7"
       x="-0.060837978"
       y="-0.21357943"
       width="1.121676"
       height="1.4271589" />
    <filter
       inkscape:label="Roughen"
       inkscape:menu="Image Effects"
       inkscape:menu-tooltip="Adds a small scale graininess"
       style="color-interpolation-filters:sRGB;"
       id="filter56"
       x="0"
       y="0"
       width="1"
       height="1">
      <feTurbulence
         type="fractalNoise"
         numOctaves="3"
         baseFrequency="1"
         seed="0"
         result="result0"
         id="feTurbulence55" />
      <feColorMatrix
         result="result4"
         values="0"
         type="saturate"
         id="feColorMatrix55" />
      <feComposite
         in="SourceGraphic"
         in2="result4"
         operator="arithmetic"
         k1="1.25"
         k2="0.5"
         k3="0.5"
         result="result2"
         id="feComposite55" />
      <feBlend
         result="result5"
         mode="normal"
         in="result2"
         in2="SourceGraphic"
         id="feBlend55" />
      <feComposite
         in="result5"
         in2="SourceGraphic"
         operator="in"
         result="fbSourceGraphic"
         id="feComposite56" />
      <feColorMatrix
         result="fbSourceGraphicAlpha"
         in="fbSourceGraphic"
         values="0 0 0 -1 0 0 0 0 -1 0 0 0 0 -1 0 0 0 0 1 0"
         id="feColorMatrix62" />
      <feTurbulence
         id="feTurbulence62"
         type="fractalNoise"
         numOctaves="5"
         seed="256"
         baseFrequency="7.32353 7.38142"
         result="turbulence"
         in="fbSourceGraphic" />
      <feDisplacementMap
         id="feDisplacementMap62"
         in="fbSourceGraphic"
         in2="turbulence"
         scale="2.8"
         yChannelSelector="G"
         xChannelSelector="R"
         result="fbSourceGraphic" />
      <feColorMatrix
         result="fbSourceGraphicAlpha"
         in="fbSourceGraphic"
         values="0 0 0 -1 0 0 0 0 -1 0 0 0 0 -1 0 0 0 0 1 0"
         id="feColorMatrix63" />
      <feTurbulence
         id="feTurbulence63"
         type="fractalNoise"
         numOctaves="5"
         seed="256"
         baseFrequency="7.32353 7.38142"
         result="turbulence"
         in="fbSourceGraphic" />
      <feDisplacementMap
         id="feDisplacementMap63"
         in="fbSourceGraphic"
         in2="turbulence"
         scale="2.8"
         yChannelSelector="G"
         xChannelSelector="R" />
    </filter>
    <filter
       inkscape:label="Roughen"
       inkscape:menu="Image Effects"
       inkscape:menu-tooltip="Adds a small scale graininess"
       style="color-interpolation-filters:sRGB;"
       id="filter58"
       x="0"
       y="0"
       width="1"
       height="1">
      <feTurbulence
         type="fractalNoise"
         numOctaves="3"
         baseFrequency="1"
         seed="0"
         result="result0"
         id="feTurbulence56" />
      <feColorMatrix
         result="result4"
         values="0"
         type="saturate"
         id="feColorMatrix56" />
      <feComposite
         in="SourceGraphic"
         in2="result4"
         operator="arithmetic"
         k1="1.25"
         k2="0.5"
         k3="0.5"
         result="result2"
         id="feComposite57" />
      <feBlend
         result="result5"
         mode="normal"
         in="result2"
         in2="SourceGraphic"
         id="feBlend57" />
      <feComposite
         in="result5"
         in2="SourceGraphic"
         operator="in"
         result="fbSourceGraphic"
         id="feComposite58" />
      <feColorMatrix
         result="fbSourceGraphicAlpha"
         in="fbSourceGraphic"
         values="0 0 0 -1 0 0 0 0 -1 0 0 0 0 -1 0 0 0 0 1 0"
         id="feColorMatrix64" />
      <feTurbulence
         id="feTurbulence64"
         type="fractalNoise"
         numOctaves="5"
         seed="256"
         baseFrequency="2.5519 2.46118"
         result="turbulence"
         in="fbSourceGraphic" />
      <feDisplacementMap
         id="feDisplacementMap64"
         in="fbSourceGraphic"
         in2="turbulence"
         scale="1"
         yChannelSelector="G"
         xChannelSelector="R" />
    </filter>
    <filter
       style="color-interpolation-filters:sRGB;"
       inkscape:label="Roughen"
       id="filter65"
       x="0"
       y="0"
       width="1"
       height="1">
      <feTurbulence
         type="fractalNoise"
         numOctaves="5"
         seed="256"
         baseFrequency="2.5519 2.46118"
         result="turbulence"
         id="feTurbulence65" />
      <feDisplacementMap
         in="SourceGraphic"
         in2="turbulence"
         scale="2.3"
         yChannelSelector="G"
         xChannelSelector="R"
         id="feDisplacementMap65" />
    </filter>
  </defs>
  <g
     inkscape:label="Layer 1"
     inkscape:groupmode="layer"
     id="layer1">
    <path
       d="m 66.505294,178.7026 c -0.07449,-0.0745 -0.135436,-0.36563 -0.135436,-0.64697 0,-0.53289 -1.427047,-2.12521 -2.116667,-2.36181 -0.340567,-0.11684 -0.330235,-0.21133 0.07282,-0.66604 0.424482,-0.47888 0.42977,-0.56302 0.05493,-0.87411 -0.989712,-0.82139 -0.08904,-0.88802 11.183185,-0.82736 4.428901,0.0238 6.945312,0.13324 6.945312,0.30196 0,0.14552 -0.164015,0.26459 -0.364478,0.26459 -0.200463,0 -0.512698,0.17859 -0.693855,0.39687 -0.269762,0.32504 -0.251681,0.39688 0.0999,0.39688 0.914719,0 0.443006,0.68953 -1.0955,1.60137 -0.474822,0.28142 -1.057811,0.91954 -1.295532,1.41804 -0.399009,0.83673 -0.549771,0.92002 -1.962157,1.08394 -1.96546,0.22812 -2.459302,0.0546 -2.769739,-0.97347 -0.351182,-1.16294 -1.484418,-1.93617 -2.787568,-1.902 -1.187698,0.0311 -1.917709,0.56658 -2.608642,1.91335 -0.381117,0.74287 -0.620387,0.90269 -1.424592,0.95151 -0.531599,0.0323 -1.027489,-0.002 -1.101979,-0.0768 z m 18.782272,0.0148 c -0.145521,-0.10691 -0.474155,-0.64745 -0.730298,-1.2012 -0.316265,-0.68372 -0.762022,-1.13062 -1.389063,-1.39261 -1.061554,-0.44355 -1.131752,-0.69946 -0.394181,-1.43703 0.291042,-0.29105 0.529167,-0.64021 0.529167,-0.77593 0,-0.13571 0.267891,-0.33925 0.595313,-0.45231 0.657124,-0.22692 51.803696,-0.17137 52.031566,0.0565 0.0782,0.0782 0.0215,0.225 -0.12597,0.32623 -0.14747,0.10122 -0.28375,0.54123 -0.30284,0.9778 l -0.0347,0.79375 0.31051,-0.66146 c 0.26576,-0.56615 0.46301,-0.65085 1.36884,-0.58784 0.78315,0.0545 0.95514,0.004 0.66146,-0.19438 -0.21828,-0.14741 -0.60524,-0.26984 -0.8599,-0.27206 -0.25466,-0.002 -0.46302,-0.10528 -0.46302,-0.229 0,-0.3389 5.49211,-0.56009 9.45886,-0.38094 l 3.50573,0.15833 0.002,-3.28195 c 9.4e-4,-1.80508 7.5e-4,-23.72492 -4.2e-4,-48.71076 -0.002,-43.003294 0.0226,-45.443214 0.46131,-45.698724 0.43613,-0.25401 0.43487,-0.27039 -0.0213,-0.27797 -0.43153,-0.007 -0.47509,-0.21135 -0.39687,-1.86072 l 0.0879,-1.85268 -1.32292,-0.0307 c -0.7276,-0.0169 -1.42475,-0.0125 -1.5492,0.01 -0.12446,0.0223 -0.39235,-0.0972 -0.59532,-0.26564 -0.25167,-0.20887 -0.36902,-0.21537 -0.36902,-0.0204 0,0.20121 -4.45867,0.28916 -15.06366,0.29715 l -15.06366,0.0113 -0.11024,-0.72778 -0.11024,-0.72778 -0.0396,0.73262 -0.0396,0.73262 -26.524479,-0.0136 c -14.588463,-0.007 -26.881666,-0.01 -27.318229,-0.005 l -0.79375,0.008 0.06997,10.385 c 0.135845,20.162104 0.06372,90.904684 -0.09317,91.387414 -0.09514,0.29274 -0.06928,0.37234 0.06439,0.19818 0.122868,-0.16009 0.818709,-0.27915 1.546313,-0.26458 l 1.322917,0.0265 v 1.05833 c 0,0.75611 -0.10333,1.03649 -0.361838,0.98182 -0.515514,-0.10901 -2.416287,1.91211 -2.416287,2.56928 0,0.49409 -0.156932,0.54994 -1.545031,0.54994 -1.384452,0 -1.575843,-0.0676 -1.841501,-0.65068 -0.163059,-0.35787 -0.777482,-0.89607 -1.365386,-1.196 -1.023679,-0.52224 -1.068915,-0.59884 -1.068915,-1.80994 0,-1.34775 0.328753,-1.89962 1.131602,-1.89962 0.712621,0 2.043398,-1.42816 2.043398,-2.19293 0,-0.96484 -0.951586,-1.99127 -2.14365,-2.31226 l -1.056944,-0.2846 0.07894,-1.48526 c 0.0758,-1.4262 0.114475,-1.49717 0.972703,-1.78503 1.095142,-0.36732 2.148948,-1.53981 2.148948,-2.39097 0,-0.85112 -1.053766,-2.02361 -2.148948,-2.39106 -0.871005,-0.29224 -0.895755,-0.34095 -0.972071,-1.91321 l -0.07831,-1.61333 1.184004,-0.52374 c 2.576804,-1.13984 2.441723,-3.8715 -0.233634,-4.72462 -0.757364,-0.24152 -0.797388,-0.32902 -0.87312,-1.90887 -0.08853,-1.84689 0.126172,-2.26713 1.275777,-2.49705 1.074253,-0.21485 1.918524,-1.57767 1.735128,-2.80084 -0.161553,-1.07748 -0.900559,-1.89083 -2.078416,-2.28749 -0.843916,-0.28421 -0.853958,-0.30779 -0.930933,-2.18664 -0.06695,-1.63414 -0.01153,-1.92074 0.396875,-2.05261 1.548476,-0.49996 1.93212,-0.76457 2.332829,-1.609 0.801038,-1.68806 -0.06511,-3.52946 -1.889705,-4.01743 -0.752103,-0.20115 -0.762185,-0.22953 -0.762185,-2.14558 v -1.94173 l 0.853119,-0.28819 c 1.397835,-0.4722 2.057298,-1.3234 2.057298,-2.65547 0,-1.36559 -0.753371,-2.34216 -2.166677,-2.8086 l -0.898238,-0.29644 0.07725,-1.87133 c 0.07704,-1.86622 0.07969,-1.87214 0.97101,-2.17137 0.491568,-0.16502 1.188969,-0.64324 1.54978,-1.0627 0.530454,-0.61669 0.629817,-0.95802 0.519127,-1.78328 -0.07529,-0.56134 -0.35232,-1.3435 -0.615619,-1.73814 -0.263299,-0.39464 -0.44965,-0.89612 -0.414112,-1.1144 0.05023,-0.30855 0.0042,-0.29897 -0.206793,0.0431 -0.227804,0.36926 -0.398888,0.39183 -1.064921,0.14043 -0.781546,-0.295 -0.793514,-0.32858 -0.793514,-2.22589 0,-1.73451 0.05146,-1.92637 0.516717,-1.92637 1.453639,0 2.658283,-1.35121 2.658283,-2.9817 0,-1.1712 -0.75951,-2.13294 -2.111714,-2.67399 l -1.063286,-0.42544 v -1.72408 -1.724074 l 1.063286,-0.42545 c 1.165479,-0.46633 2.111714,-1.47759 2.111714,-2.25682 0,-0.40222 0.130308,-0.46582 0.674521,-0.32924 0.632933,0.15886 0.662853,0.12247 0.485279,-0.59027 -0.171032,-0.68647 -0.146829,-0.72462 0.25152,-0.39644 0.672604,0.55413 0.590138,-0.27822 -0.0884,-0.89229 -0.519996,-0.47059 -0.529166,-0.46213 -0.529166,0.48816 0,1.12655 -0.683505,1.36613 -0.943387,0.33068 -0.207511,-0.82679 -1.169535,-1.71888 -2.130887,-1.97599 -0.752409,-0.20122 -0.762185,-0.22883 -0.762185,-2.15236 v -1.94852 l 0.837959,-0.21714 c 1.118509,-0.28983 2.20502,-1.61167 2.203761,-2.68107 -0.0015,-1.31127 -0.863585,-2.48009 -2.103025,-2.85144 l -1.070986,-0.32087 v -1.81961 -1.8196 l 1.175648,-0.50394 c 2.640415,-1.13182 2.638249,-4.16495 -0.0038,-5.33366 l -1.172199,-0.51815 v -1.68381 -1.68381 l 1.18021,-0.57133 c 0.869787,-0.42105 1.266522,-0.81002 1.50836,-1.47881 l 0.32815,-0.90748 h 1.918842 1.918842 l 0.505839,1.14354 c 0.485168,1.0968 1.74599,2.03321 2.733909,2.03047 0.810588,-0.002 2.143386,-1.11879 2.539648,-2.12757 l 0.411052,-1.04644 h 2.05551 c 2.046318,0 2.056252,0.003 2.221679,0.75657 0.21263,0.9681 1.369576,2.04739 2.389349,2.22898 1.326122,0.23615 2.465065,-0.42729 3.066082,-1.78599 l 0.530543,-1.19956 h 1.918842 1.918842 l 0.318415,0.88056 c 1.015532,2.80841 4.467658,2.90222 5.548453,0.15078 l 0.405122,-1.03134 h 1.931859 1.931859 l 0.518361,1.17184 c 1.205121,2.72438 4.351677,2.53414 5.347787,-0.32332 l 0.2958,-0.84852 h 2.06976 2.06976 l 0.16974,0.77285 c 0.41174,1.87463 2.55943,2.89969 4.12193,1.96734 0.78085,-0.46594 1.35676,-1.24858 1.67564,-2.27717 0.11738,-0.37861 0.45632,-0.46302 1.85926,-0.46302 h 1.71571 l 0.5251,1.18706 c 0.73493,1.66143 1.96815,2.25672 3.5455,1.71143 0.91239,-0.31541 1.22615,-0.61197 1.73692,-1.64172 l 0.62339,-1.25677 1.89016,0.003 1.89015,0.003 0.43212,1.0293 c 1.10836,2.64005 4.42318,2.63803 5.46074,-0.003 l 0.40512,-1.03134 h 1.93186 1.93186 l 0.50584,1.14354 c 0.51669,1.16807 1.75434,2.03146 2.91205,2.03146 0.7862,0 2.08302,-1.20454 2.43056,-2.25761 l 0.30277,-0.91739 h 1.95147 1.95148 l 0.51836,1.17184 c 0.54984,1.24301 1.60909,2.00316 2.79134,2.00316 0.88117,0 2.45478,-1.40964 2.67062,-2.39234 0.16864,-0.76783 0.20401,-0.78266 1.86712,-0.78266 1.68177,0 1.69823,0.007 2.07563,0.91046 0.25364,0.60704 0.73977,1.09378 1.45876,1.46058 l 1.07835,0.55013 v 1.70204 1.70203 l -1.17184,0.51836 c -2.47727,1.09581 -2.66111,4.0489 -0.32119,5.15927 0.50135,0.2379 1.04237,0.43255 1.20228,0.43255 0.1835,0 0.29075,0.68118 0.29075,1.8467 v 1.84671 l -1.03333,0.52716 c -2.82377,1.44058 -2.81969,4.49576 0.007,5.44759 l 0.89376,0.30093 v 1.93716 1.93716 l -0.85312,0.28819 c -1.24009,0.41891 -1.94479,1.2509 -2.11135,2.49274 -0.19015,1.41765 0.38431,2.30891 1.92846,2.99195 l 1.16831,0.5168 v 1.695034 1.69503 l -1.17184,0.51836 c -2.64079,1.16815 -2.64079,4.19466 0,5.36281 l 1.17184,0.51836 v 1.78655 1.78655 l -0.91295,0.33012 c -1.2538,0.45338 -2.26205,1.7123 -2.26205,2.82444 0,1.10249 0.92065,2.23792 2.14894,2.65026 0.8927,0.29969 0.89386,0.30229 0.97145,2.19308 l 0.0777,1.89303 -1.07483,0.43006 c -0.59116,0.23654 -1.31072,0.72996 -1.59904,1.09649 -1.12175,1.42608 -0.30353,3.5296 1.62473,4.17693 0.88928,0.29853 0.89415,0.30927 0.97038,2.14001 l 0.0766,1.83997 -1.02938,0.45416 c -1.33969,0.59107 -1.88907,1.22439 -2.07937,2.3971 -0.20535,1.26545 0.41512,2.18774 1.9195,2.8532 l 1.16831,0.5168 v 1.82732 1.82732 l -1.17184,0.51836 c -2.76251,1.22198 -2.50456,4.56181 0.40163,5.20011 l 0.79244,0.17405 -0.0773,1.8736 -0.0773,1.8736 -1.13004,0.3758 c -1.14324,0.38019 -1.91266,1.33465 -1.91266,2.37265 0,0.8103 0.79485,1.67879 2.01522,2.2019 l 1.15978,0.49713 v 1.59905 1.59904 l -1.06329,0.42545 c -1.16995,0.46812 -2.11171,1.47821 -2.11171,2.26492 0,1.06039 0.76032,2.01263 1.91266,2.39547 1.11791,0.3714 1.1309,0.39009 1.2099,1.74035 l 0.0799,1.36492 -1.077,0.43093 c -1.2259,0.49051 -2.12542,1.48673 -2.12542,2.35389 0,0.90988 0.97609,1.94183 2.13085,2.25278 l 1.04415,0.28115 v 1.39601 c 0,1.33877 -0.0385,1.41438 -0.93961,1.84407 -0.51678,0.24644 -1.14186,0.80352 -1.38906,1.23796 -0.42292,0.74324 -0.54638,0.78999 -2.09072,0.79156 l -1.64127,0.002 -0.5135,-1.16084 c -1.09191,-2.46845 -4.30804,-2.20594 -5.30792,0.43324 -0.26833,0.70826 -0.33069,0.7276 -2.34572,0.7276 h -2.07007 l -0.33729,-0.93275 c -0.1855,-0.51301 -0.62614,-1.12202 -0.97919,-1.35335 -0.35305,-0.23132 -0.6513,-0.61525 -0.66279,-0.85318 -0.0132,-0.27435 -0.0697,-0.31161 -0.15434,-0.10186 -0.074,0.18343 -0.58279,0.33073 -1.14233,0.33073 -0.82363,0 -1.15965,0.17172 -1.83004,0.93525 -0.45163,0.51438 -0.82115,1.16923 -0.82115,1.4552 0,0.47349 -0.18887,0.51996 -2.11312,0.51996 h -2.11312 l -0.36391,-0.85989 c -0.56593,-1.33728 -1.38253,-1.91823 -2.6963,-1.91823 -0.90988,0 -1.3143,0.16175 -1.96632,0.78642 -0.45146,0.43253 -0.88664,1.04857 -0.96706,1.36898 -0.13167,0.52463 -0.34215,0.59115 -2.11611,0.66879 l -1.9699,0.0862 -0.53169,-1.09989 c -0.64711,-1.33862 -1.9729,-2.07441 -3.29195,-1.82695 -0.9201,0.17261 -2.50803,1.69649 -2.50803,2.40688 0,0.25015 -0.26846,0.38766 -0.75682,0.38766 -0.41625,0 -1.29722,0.0741 -1.9577,0.1646 l -1.20088,0.1646 -0.52013,-1.17584 c -1.20625,-2.72691 -4.72675,-2.75541 -5.92439,-0.0479 l -0.52396,1.1845 -1.48765,-0.0788 c -1.45393,-0.077 -1.49327,-0.0998 -1.73601,-1.00486 -0.1366,-0.50932 -0.30243,-0.77721 -0.3685,-0.59531 -0.0661,0.1819 -0.32188,0.33073 -0.56845,0.33073 -0.246577,0 -0.652209,0.23813 -0.901406,0.52917 -0.600046,0.7008 -1.159235,0.67027 -1.345904,-0.0735 -0.228002,-0.90843 -1.561534,-2.04597 -2.57679,-2.19806 -1.170786,-0.1754 -2.523329,0.65027 -3.022581,1.84514 -0.27609,0.66078 -0.582025,0.92739 -1.207777,1.05254 -1.113071,0.22262 -2.428429,0.20597 -2.756256,-0.0349 z m 40.429924,-4.37442 c -0.0704,-0.11621 -0.29476,-0.073 -0.49848,0.0961 -0.20373,0.16908 -0.30589,0.4118 -0.22704,0.53938 0.0789,0.12759 0.30317,0.0843 0.49848,-0.0961 0.19531,-0.18045 0.29748,-0.42317 0.22704,-0.53938 z m -33.286174,0.34358 c -0.08994,-0.14553 -0.364854,-0.25622 -0.610927,-0.24599 -0.364727,0.0152 -0.349618,0.0606 0.08176,0.24599 0.708002,0.30423 0.717197,0.30423 0.529167,0 z m 23.897174,-0.28598 c -0.7545,-0.42224 -1.80447,-0.4894 -1.80447,-0.11543 0,0.45861 0.41571,0.59099 1.40149,0.44631 0.57385,-0.0842 0.68324,-0.17404 0.40298,-0.33088 z m 30.21012,0.44913 c 0,-0.0558 -0.23829,-0.16375 -0.52953,-0.23991 -0.29125,-0.0762 -0.46281,-0.0305 -0.38126,0.10143 0.14241,0.23043 0.91079,0.34725 0.91079,0.13848 z m -19.44688,-0.42774 c -0.0899,-0.14552 -0.36485,-0.25621 -0.61092,-0.24599 -0.36473,0.0152 -0.34962,0.0606 0.0818,0.24599 0.708,0.30424 0.71719,0.30424 0.52916,0 z m -18.65312,-0.10398 c 0,-0.0572 -0.18478,-0.17489 -0.41062,-0.26156 -0.23546,-0.0904 -0.34166,-0.046 -0.24897,0.10399 0.15538,0.25141 0.65959,0.37186 0.65959,0.15757 z M 60.349198,143.59801 c 0.147987,-0.77414 -0.204324,-0.90351 -0.401996,-0.14761 -0.112868,0.43161 -0.01107,0.80907 0.2182,0.80907 0.03154,0 0.114251,-0.29765 0.183796,-0.66146 z m 0.03446,-2.19544 c 0.201524,-0.32607 -0.174808,-0.70871 -0.760677,-0.77342 -0.291042,-0.0322 -0.380339,0.008 -0.198438,0.0882 0.181901,0.0806 0.33073,0.31531 0.33073,0.52146 0,0.40276 0.413995,0.51065 0.628385,0.16376 z m -0.956002,-32.07071 c -0.185851,-0.29759 -0.375815,-0.40063 -0.431366,-0.23398 -0.0546,0.16379 0.06407,0.40126 0.263713,0.52773 0.521032,0.33005 0.538312,0.29977 0.167653,-0.29375 z M 57.903189,108.97 c 0,-0.0549 -0.208359,-0.26331 -0.463021,-0.46302 -0.419643,-0.32911 -0.429002,-0.31975 -0.09989,0.0999 0.345643,0.44073 0.562915,0.58089 0.562915,0.36313 z m 1.984375,-0.69386 c -0.08994,-0.14552 -0.305323,-0.26276 -0.478636,-0.26053 -0.189339,0.002 -0.156706,0.10642 0.08176,0.26053 0.508297,0.32849 0.599891,0.32849 0.396876,0 z M 59.490689,71.631346 c 0,-0.21828 -0.04679,-0.39687 -0.103984,-0.39687 -0.05719,0 -0.172517,0.17859 -0.256279,0.39687 -0.08376,0.21828 -0.03697,0.39688 0.103984,0.39688 0.140953,0 0.256279,-0.1786 0.256279,-0.39688 z m -0.926041,-0.13229 c -0.08994,-0.14552 -0.335089,-0.26458 -0.544782,-0.26458 -0.209693,0 -0.38126,0.11906 -0.38126,0.26458 0,0.14552 0.245152,0.26458 0.544781,0.26458 0.29963,0 0.471197,-0.11906 0.381261,-0.26458 z m 77.390632,-0.66146 c 0,-0.21828 -0.18329,-0.39687 -0.40731,-0.39687 -0.33653,0 -0.34802,0.0672 -0.0661,0.38681 0.4337,0.49173 0.47346,0.49257 0.47346,0.0101 z m 1.38788,-0.34461 c -0.10519,-0.27413 -0.19921,-0.311 -0.26786,-0.10503 -0.0582,0.17454 -0.27446,0.31735 -0.48062,0.31735 -0.20615,0 -0.37482,0.10255 -0.37482,0.22789 0,0.12534 0.28921,0.17261 0.64269,0.10504 0.45781,-0.0875 0.59607,-0.24437 0.48061,-0.54525 z m 9.3429,0.0584 c -0.65581,-0.47954 -1.2308,-0.48372 -1.0481,-0.008 0.0816,0.21255 0.35709,0.31115 0.65315,0.23372 0.30993,-0.081 0.51208,1.3e-4 0.51208,0.20563 0,0.18675 0.0891,0.25043 0.19802,0.14152 0.10892,-0.10891 -0.0329,-0.36688 -0.31515,-0.57326 z m -61.795371,0.15392 c 0,-0.14552 -0.126089,-0.26458 -0.280198,-0.26458 -0.154109,0 -0.206614,0.11906 -0.116677,0.26458 0.08994,0.14552 0.216026,0.26458 0.280198,0.26458 0.06417,0 0.116677,-0.11906 0.116677,-0.26458 z m -25.837865,-0.40829 c -0.08617,-0.22455 -0.213419,-0.35154 -0.282774,-0.28218 -0.06935,0.0694 -0.04762,0.25308 0.0483,0.40828 0.260892,0.42214 0.413379,0.34013 0.234472,-0.1261 z m 17.140364,-0.0547 c 0.328525,-0.4189 0.319328,-0.42869 -0.09652,-0.10269 -0.252809,0.19818 -0.639762,0.29121 -0.859896,0.20674 -0.220135,-0.0845 -0.400245,-0.0383 -0.400245,0.10269 0,0.43226 0.971647,0.2842 1.356666,-0.20674 z m 73.416662,-0.20734 c 0.0315,-0.21476 -0.0513,-0.32335 -0.18405,-0.24131 -0.13275,0.082 -0.24136,0.34058 -0.24136,0.57453 0,0.5014 0.34226,0.23332 0.42541,-0.33322 z m -63.396242,0.14121 c 0,-0.14552 -0.112036,-0.26458 -0.248969,-0.26458 -0.136932,0 -0.322553,0.11906 -0.41249,0.26458 -0.08994,0.14552 0.0221,0.26459 0.248969,0.26459 0.226869,0 0.41249,-0.11907 0.41249,-0.26459 z m 58.930422,0.10473 c -0.0879,-0.0879 -0.31612,-0.0973 -0.50711,-0.0209 -0.21107,0.0845 -0.14838,0.14715 0.15985,0.15985 0.27891,0.0115 0.43518,-0.0511 0.34726,-0.13897 z m 3.40088,-0.0692 c -0.13172,-0.21314 -1.47713,-0.0969 -1.47713,0.12765 0,0.0558 0.36421,0.10145 0.80936,0.10145 0.44515,0 0.74565,-0.1031 0.66777,-0.2291 z m -88.712877,-0.56502 c 0.07616,-0.29124 0.03052,-0.46281 -0.101433,-0.38126 -0.13195,0.0816 -0.239909,0.31984 -0.239909,0.52953 0,0.54762 0.179784,0.46953 0.341342,-0.14827 z m 91.465027,0.1988 c -0.002,-0.1819 -0.10984,-0.49781 -0.23912,-0.70201 -0.1682,-0.26567 -0.2235,-0.17164 -0.19439,0.33054 0.0397,0.68431 0.44156,1.0287 0.43351,0.37147 z m -5.88293,102.270354 c -1.22246,-0.18519 -0.8096,-0.60424 0.59531,-0.60424 0.91368,0 1.32292,-0.10713 1.32292,-0.34631 0,-0.19047 0.17649,-0.57742 0.3922,-0.8599 0.36369,-0.47625 0.37968,-0.44627 0.21999,0.41246 -0.0947,0.50932 -0.36051,1.07108 -0.59064,1.24835 -0.42563,0.32787 -0.64933,0.34512 -1.93978,0.14964 z m -82.219272,-0.33966 c 0,-0.14552 0.588286,-0.26458 1.307302,-0.26458 0.719016,0 1.380886,0.11906 1.470823,0.26458 0.101524,0.16427 -0.394128,0.26458 -1.307302,0.26458 -0.808953,0 -1.470823,-0.11906 -1.470823,-0.26458 z m 3.704167,0 c 0,-0.14552 0.171567,-0.26458 0.38126,-0.26458 0.209693,0 0.454844,0.11906 0.544781,0.26458 0.08994,0.14552 -0.08163,0.26458 -0.38126,0.26458 -0.29963,0 -0.544781,-0.11906 -0.544781,-0.26458 z m -5.115278,-0.70556 c -0.295436,-0.29543 -0.20916,-13.58194 0.08819,-13.58194 0.167615,0 0.279761,2.25452 0.305997,6.15156 0.02278,3.38336 0.06456,6.47899 0.09285,6.87917 0.05005,0.708 -0.128348,0.9099 -0.487037,0.55121 z m 17.868194,-1.72861 c -0.53144,-0.53144 -0.358031,-1.8449 0.476459,-3.60886 0.436448,-0.92257 0.793541,-1.7225 0.793541,-1.77763 0,-0.24744 -1.003616,0.30388 -1.795144,0.98613 -0.917268,0.79063 -1.856334,0.96055 -2.385273,0.43161 -0.844341,-0.84434 0.113908,-3.04589 1.738822,-3.99489 0.81767,-0.47754 0.900454,-0.48059 1.547034,-0.0569 0.53732,0.35207 0.659006,0.61202 0.570089,1.21785 -0.221517,1.50929 0.613662,0.79591 2.551486,-2.17938 1.618063,-2.48434 2.099628,-3.0083 2.523896,-2.74609 0.415772,0.25696 0.325104,0.72741 -0.281836,1.46237 -0.300434,0.3638 -0.469353,0.51263 -0.375377,0.33073 0.31785,-0.61523 -0.0609,-0.33563 -0.537601,0.39687 -0.462749,0.71107 -0.462041,0.71859 0.03115,0.33073 0.495951,-0.39002 0.496051,-0.38317 0.0058,0.39688 -0.274381,0.43656 -0.837873,1.2276 -1.252203,1.75786 -0.41433,0.53027 -0.753328,1.08879 -0.753328,1.24116 0,0.79929 1.116044,0.52744 2.314061,-0.56368 0.326848,-0.29769 0.679824,-0.45569 0.784392,-0.35113 0.329536,0.32954 -0.332249,1.06261 -1.458687,1.61582 -0.81873,0.40209 -1.08894,0.69177 -1.098251,1.17737 -0.01853,0.96658 -1.008679,2.82859 -1.905345,3.58309 -0.900887,0.75805 -1.05065,0.79315 -1.49367,0.35013 z m 2.327654,-3.37419 c 0.414839,-1.50243 -0.134909,-1.47736 -0.850445,0.0388 -0.364426,0.77217 -0.744187,1.70161 -0.843914,2.06541 -0.164689,0.60078 -0.106972,0.57692 0.62915,-0.26008 0.44576,-0.50684 0.925104,-1.3367 1.065209,-1.84411 z m -3.401459,-1.78754 c 0.238875,-0.20442 0.377331,-0.58959 0.307679,-0.85594 -0.06965,-0.26635 0.0028,-0.56427 0.160993,-0.66204 0.158198,-0.0978 0.289456,-0.0219 0.291685,0.16858 0.0029,0.25167 0.07416,0.23785 0.260531,-0.0505 0.740243,-1.14545 -0.100482,-1.04177 -1.225529,0.15113 -1.351657,1.43317 -1.186756,2.43947 0.204641,1.2488 z m 50.064814,4.81862 c -0.26435,-0.68888 0.31216,-1.61413 1.59587,-2.56125 0.65539,-0.48355 1.26233,-1.0511 1.34876,-1.26122 0.11518,-0.28004 0.0249,-0.26237 -0.33811,0.0661 -0.60892,0.55107 -0.961,0.56441 -1.46972,0.0557 -0.34693,-0.34693 -0.49118,-0.30029 -1.2427,0.40174 -0.9549,0.892 -1.57761,0.71133 -1.57761,-0.45772 v -0.64827 l -0.69714,0.54837 c -0.81379,0.64013 -1.49285,0.70075 -1.93132,0.17243 -0.26858,-0.32362 -0.4142,-0.3173 -1.04617,0.0454 -1.45305,0.83394 -2.09335,-0.29375 -1.20942,-2.12999 0.32749,-0.68033 0.10187,-0.52376 -1.14797,0.79663 -1.04641,1.10548 -1.64297,1.556 -1.82257,1.3764 -0.1796,-0.17961 -0.49115,-0.16487 -0.95183,0.045 -0.85443,0.38931 -1.51233,0.15833 -1.51233,-0.53095 0,-0.49052 -0.0431,-0.48229 -0.64943,0.12399 -0.72736,0.72736 -1.28645,0.82063 -1.77622,0.29633 -0.27456,-0.29392 -0.44622,-0.28631 -1.0242,0.0454 -1.3732,0.78811 -2.19233,-0.19111 -1.47802,-1.76688 0.41063,-0.90583 0.34888,-0.86912 -0.95949,0.57043 -1.78302,1.96181 -2.35909,1.64715 -1.26587,-0.69145 0.51701,-1.10599 0.5116,-1.10292 -1.05474,0.59846 -1.14131,1.2397 -1.65418,1.6304 -1.86433,1.42024 -0.21016,-0.21015 -0.50203,-0.20984 -1.06098,0.001 -0.63979,0.24149 -0.85006,0.2119 -1.23504,-0.17379 -0.44228,-0.44311 -0.43129,-0.52621 0.23491,-1.77744 0.38438,-0.72193 0.66408,-1.3126 0.62154,-1.3126 -0.0425,0 -0.70524,0.77391 -1.47268,1.71979 -0.76744,0.94589 -1.49735,1.71979 -1.62203,1.71979 -0.53914,0 -0.48851,-0.90198 0.11961,-2.13076 0.55127,-1.11393 0.57576,-1.25248 0.15387,-0.87068 -0.27595,0.24973 -0.93882,1.02722 -1.47305,1.72775 -0.53424,0.70053 -1.11554,1.27369 -1.29179,1.27369 -0.44341,0 -0.60512,-0.56913 -0.3195,-1.12448 0.38947,-0.75724 -0.41028,-0.56389 -1.36798,0.33073 -0.988139,0.92307 -1.891232,1.0136 -2.593338,0.25997 -0.496912,-0.53337 -0.498076,-0.53315 -1.531661,0.29036 -2.170938,1.72968 -3.540881,2.00218 -4.766343,0.94808 -0.592276,-0.50946 -0.715588,-0.82881 -0.700685,-1.81466 0.02296,-1.5184 0.742722,-2.9266 2.45152,-4.79629 2.653506,-2.90336 5.37902,-3.82985 5.952366,-2.0234 0.20142,0.63462 -0.94533,2.75139 -1.713179,3.16233 -0.668807,0.35793 -1.332009,0.34215 -1.332009,-0.0317 0,-0.16563 0.47625,-0.81782 1.058333,-1.4493 1.199668,-1.30149 1.353395,-1.81423 0.463021,-1.54438 -2.689677,0.81518 -6.6249,6.29309 -5.497072,7.65204 0.788426,0.95 2.815752,0.086 5.228974,-2.2286 2.110893,-2.02457 2.815613,-2.48107 3.496573,-2.26494 0.70072,0.2224 1.14715,1.06709 0.92833,1.75652 -0.1518,0.47829 -0.10857,0.50794 0.36839,0.25268 0.2972,-0.15906 0.75086,-0.64553 1.00812,-1.08104 0.55546,-0.94031 1.55846,-1.1159 1.32741,-0.23239 -0.14596,0.55819 -0.14488,0.55813 0.47471,-0.0239 0.77087,-0.7242 1.6026,-0.61454 1.5725,0.20732 l -0.0218,0.59403 0.69769,-0.66843 c 0.78624,-0.75327 1.85936,-0.89901 1.85936,-0.25253 0,0.22875 -0.31212,0.9485 -0.6936,1.59945 -0.38148,0.65095 -0.61837,1.25879 -0.52641,1.35075 0.2307,0.23069 1.67532,-1.17253 2.44395,-2.37392 0.4022,-0.62866 0.83782,-0.99218 1.18894,-0.99218 0.3695,0 0.50621,0.12495 0.41026,0.37498 -0.11673,0.30418 -0.006,0.29561 0.58859,-0.0454 0.83636,-0.48 1.75256,-0.275 1.5168,0.33938 -0.10411,0.27129 0.15247,0.19203 0.79774,-0.24644 0.96429,-0.65525 1.68207,-0.65908 1.68207,-0.009 0,0.19631 -0.3541,0.95748 -0.78689,1.69149 -0.43279,0.73401 -0.6569,1.33456 -0.49804,1.33456 0.33398,0 1.95917,-1.62884 2.7551,-2.76129 0.3824,-0.54408 0.67935,-0.7223 0.99908,-0.59961 0.41514,0.1593 0.40011,0.2619 -0.1717,1.17243 -0.34466,0.54881 -0.77319,1.27419 -0.9523,1.61194 -0.32401,0.61102 -0.32223,0.61186 0.35479,0.16826 0.37425,-0.24521 1.10748,-1.02757 1.62941,-1.73858 0.56287,-0.76679 1.15507,-1.29273 1.45558,-1.29273 0.66455,0 0.64993,0.082 -0.31551,1.76942 -0.45219,0.79034 -0.7486,1.51052 -0.6587,1.60042 0.22753,0.22753 1.67705,-1.18484 2.4402,-2.37766 0.4022,-0.62866 0.83782,-0.99218 1.18894,-0.99218 0.39657,0 0.50849,0.11899 0.39358,0.41843 -0.12629,0.32912 0.0361,0.29691 0.76062,-0.15089 1.57177,-0.9714 1.90911,-0.20208 0.7664,1.74781 -0.38148,0.65095 -0.63456,1.2426 -0.56239,1.31476 0.2248,0.22481 1.8031,-1.25237 2.47453,-2.31599 0.5935,-0.94016 1.4273,-1.37289 1.4273,-0.74075 0,0.15036 -0.30566,0.87658 -0.67925,1.61381 -0.37358,0.73724 -0.62421,1.39547 -0.55695,1.46273 0.36514,0.36514 3.35287,-3.19242 3.35287,-3.99234 0,-0.25179 -1.0587,-0.16975 -1.60882,0.12467 -0.40278,0.21556 -0.5515,0.1827 -0.6792,-0.15008 -0.25092,-0.65389 0.26297,-0.97266 1.73423,-1.07575 1.11266,-0.078 1.47087,-0.23818 2.09549,-0.93725 0.80551,-0.90153 1.59251,-0.87755 1.10484,0.0337 -0.38654,0.72226 -0.35899,0.75522 0.70644,0.84526 1.64099,0.13867 1.41385,0.74357 -0.27922,0.74357 H 130.417 l -1.19485,2.05052 c -1.18067,2.02617 -1.42612,2.71198 -0.97062,2.71198 0.31514,0 1.94449,-1.82372 2.55946,-2.86478 0.46003,-0.77877 1.12092,-1.07035 1.52046,-0.67081 0.0927,0.0927 -0.05,0.47966 -0.31723,0.85989 -0.26718,0.38023 -0.6854,1.10805 -0.92937,1.61737 -0.37788,0.78888 -0.18738,0.65724 1.28609,-0.88869 1.17298,-1.23065 1.86249,-1.76377 2.14231,-1.65639 0.34444,0.13217 0.24756,0.45391 -0.58622,1.94702 l -0.99883,1.78868 1.11664,-0.88212 c 0.61415,-0.48518 1.11665,-0.99119 1.11665,-1.12448 0,-0.1333 0.17859,-0.24235 0.39687,-0.24235 0.70657,0 0.42683,0.44984 -1.12448,1.80821 -2.04709,1.79249 -2.34167,2.10019 -3.33484,3.48345 -0.92766,1.29203 -2.1404,1.74969 -2.45613,0.92689 z m 1.52046,-1.25762 0.59416,-0.85989 -0.70844,0.64143 c -0.38964,0.35279 -0.70844,0.73974 -0.70844,0.8599 0,0.40028 0.22311,0.22633 0.82272,-0.64144 z m -32.78653,-4.30681 c -0.0617,-0.547 0.0133,-0.68615 0.30883,-0.57275 0.3646,0.13991 0.86038,-0.53709 0.59076,-0.8067 -0.23043,-0.23044 -1.461341,0.86272 -1.847395,1.64066 -0.486608,0.98056 -0.285874,1.35074 0.459225,0.84686 0.39799,-0.26914 0.54549,-0.60366 0.48858,-1.10807 z m 50.50553,5.01237 c 0.0127,-0.30823 0.0754,-0.37092 0.15986,-0.15985 0.0764,0.19099 0.067,0.4192 -0.0209,0.50711 -0.0879,0.0879 -0.15046,-0.0684 -0.13897,-0.34726 z m 0.19783,-23.45971 c 0.051,-13.30301 0.18663,-22.65887 0.33072,-22.80712 0.14943,-0.15372 0.24432,7.3575 0.24432,19.33919 0,18.52523 -0.14513,26.02359 -0.50369,26.02366 -0.0868,1e-5 -0.11888,-10.15006 -0.0713,-22.55573 z m -46.12392,-0.45948 c -1.17731,-0.26141 -1.88268,-0.70509 -2.50056,-1.57282 -0.30415,-0.42713 -0.80912,-0.81433 -1.12216,-0.86044 -0.79833,-0.11759 -0.88957,-0.65112 -0.14337,-0.8384 0.34242,-0.0859 1.00388,-0.63073 1.46991,-1.21064 0.76964,-0.95772 2.03284,-1.60018 3.15607,-1.60519 0.65878,-0.003 0.30764,0.89617 -0.73874,1.89157 l -1.06948,1.01737 h 0.71773 c 0.5284,0 1.03736,-0.35599 1.92937,-1.34946 1.06124,-1.18196 1.36764,-1.36686 2.46841,-1.48962 1.07682,-0.12009 1.25677,-0.0734 1.25677,0.32603 0,0.59403 -1.6632,2.17539 -2.44661,2.32622 -0.32785,0.0631 -0.0982,0.13098 0.51037,0.15079 0.9561,0.0311 1.18616,-0.0759 1.69298,-0.78765 0.65685,-0.92247 1.9393,-1.55756 3.14518,-1.55756 0.88109,0 0.92657,0.0671 0.53787,0.79337 -0.2156,0.40285 -0.15457,0.52566 0.33073,0.66553 1.61276,0.4648 2.81854,1.01418 2.68834,1.22484 -0.26511,0.42897 -2.01197,1.02056 -2.98544,1.01105 -0.52793,-0.005 -1.25753,-0.17953 -1.62133,-0.3875 -0.3638,-0.20797 -0.89959,-0.37396 -1.19063,-0.36886 -0.31991,0.006 -0.13826,0.15286 0.45935,0.37238 1.2675,0.46559 2.29985,1.21826 2.31046,1.68453 0.006,0.27701 -0.27941,0.33271 -1.18379,0.23077 -0.92608,-0.10438 -1.45615,-0.37775 -2.37533,-1.22503 -1.05983,-0.97691 -1.31493,-1.08749 -2.44592,-1.06024 l -1.26268,0.0304 1.04245,0.20067 c 1.20815,0.23258 3.04503,1.97453 2.57635,2.44321 -0.59427,0.59427 -2.25609,-0.0624 -3.5535,-1.40414 -1.13206,-1.17074 -1.3698,-1.29833 -2.38125,-1.27786 -1.05897,0.0214 -1.07954,0.0359 -0.35749,0.25201 0.8643,0.25864 2.27656,1.50436 2.27656,2.0081 0,0.47729 -0.28992,0.56654 -1.19062,0.36654 z m 3.57187,-1.06189 c 0,-0.14552 -0.12609,-0.26458 -0.2802,-0.26458 -0.15411,0 -0.20661,0.11906 -0.11667,0.26458 0.0899,0.14552 0.21602,0.26459 0.28019,0.26459 0.0642,0 0.11668,-0.11907 0.11668,-0.26459 z m -4.36562,-0.26458 c -0.0899,-0.14552 -0.28259,-0.26458 -0.42811,-0.26458 -0.14552,0 -0.191,0.11906 -0.10106,0.26458 0.0899,0.14552 0.28258,0.26458 0.4281,0.26458 0.14553,0 0.191,-0.11906 0.10107,-0.26458 z m 7.40833,-2.52174 c 0.43656,-0.35785 0.65156,-0.65122 0.47777,-0.65195 -0.17378,-7.2e-4 -0.65003,0.29258 -1.05833,0.65179 -0.96551,0.84941 -0.45568,0.84955 0.58056,1.6e-4 z m 1.80758,0.39703 c 0.51403,-0.007 0.5259,-0.0359 0.11415,-0.27577 -0.31361,-0.18272 -0.62863,-0.17721 -0.99218,0.0174 -0.63036,0.33736 -0.71608,0.65804 -0.11416,0.42706 0.23018,-0.0883 0.67667,-0.16422 0.99219,-0.16864 z m -9.20891,-0.99919 c -0.0815,-0.0815 -0.29496,-1.7e-4 -0.47443,0.18065 -0.25937,0.26131 -0.22898,0.2917 0.14811,0.14811 0.26094,-0.0994 0.40778,-0.2473 0.32632,-0.32876 z m 4.09404,-0.31568 c 0.21828,-0.14107 0.27781,-0.25648 0.13229,-0.25648 -0.14552,0 -0.44318,0.11541 -0.66146,0.25648 -0.21828,0.14106 -0.27781,0.25648 -0.13229,0.25648 0.14552,0 0.44318,-0.11542 0.66146,-0.25648 z m -29.759065,2.20024 c -7.921083,-0.17092 -5.276342,-0.54364 5.300823,-0.74704 11.510796,-0.22136 14.207435,-0.11004 13.538521,0.55888 -0.196093,0.19609 -12.68931,0.32087 -18.839344,0.18816 z m 43.451255,-0.002 c -0.98227,-0.058 -1.78594,-0.20091 -1.78594,-0.31767 0,-0.41133 5.78852,-0.56072 14.90535,-0.38466 5.06924,0.0979 9.05784,0.26359 8.86354,0.36821 -0.39535,0.21289 -19.19509,0.49863 -21.98295,0.33412 z m 29.1331,-32.30938 c -0.113,-13.769144 0.007,-22.011904 0.3213,-22.011904 0.307,0 0.31886,33.260674 0.0119,33.450374 -0.1392,0.086 -0.27764,-4.66619 -0.33322,-11.43847 z m -86.746125,-1.49096 c 0,-1.15693 0.111529,-1.99999 0.264583,-1.99999 0.150976,0 0.264583,0.78855 0.264583,1.83647 0,1.01006 -0.119062,1.91006 -0.264583,1.99999 -0.167476,0.10351 -0.264583,-0.57051 -0.264583,-1.83647 z m 0.353537,-7.02707 c 0,-1.0914 0.0467,-1.537894 0.103786,-0.99219 0.05708,0.54571 0.05708,1.43868 0,1.98438 -0.05708,0.5457 -0.103786,0.0992 -0.103786,-0.99219 z M 148.28775,86.117336 c -0.0762,-0.25466 -0.21104,-2.66568 -0.29958,-5.35781 -0.0885,-2.69214 -0.22081,-5.10316 -0.29393,-5.35782 -0.0731,-0.25466 -0.0225,-0.46302 0.1126,-0.46302 0.32466,0 0.5787,2.22493 0.58155,5.09323 0.001,1.36548 0.11083,2.31511 0.26689,2.31511 0.15434,0 0.26458,0.88194 0.26458,2.11666 0,1.95827 -0.30337,2.7519 -0.63211,1.65365 z m -61.015809,-1.48411 c -1.043541,-0.34013 -1.851644,-1.62723 -1.850683,-2.94766 0.0014,-1.92913 2.059806,-3.4878 3.605311,-2.73002 3.217218,1.57743 1.611063,6.77468 -1.754628,5.67768 z m 1.835234,-1.98094 c 0.806774,-1.94773 -1.183879,-3.66508 -2.048559,-1.76731 -0.194946,0.42786 -0.20234,0.92488 -0.0234,1.57294 0.221502,0.80222 0.376439,0.94744 1.010814,0.94744 0.574016,0 0.822158,-0.1761 1.061147,-0.75307 z m -7.920651,-0.81686 v -2.92799 h 1.852084 c 1.675694,0 1.852083,0.0504 1.852083,0.52917 0,0.44097 -0.176389,0.52917 -1.058333,0.52917 -0.881945,0 -1.058334,0.0882 -1.058334,0.52916 0,0.41158 0.176389,0.52917 0.79375,0.52917 0.670278,0 0.79375,0.10289 0.79375,0.66146 0,0.55569 -0.124486,0.66146 -0.778537,0.66146 -0.726774,0 -0.783946,0.0748 -0.859895,1.12447 -0.0728,1.0062 -0.157898,1.13329 -0.808963,1.2082 l -0.727605,0.0837 z m 11.122807,2.31379 c -0.458915,-0.49259 -0.539473,-0.92982 -0.539473,-2.92799 v -2.34894 l 0.716961,0.0837 c 0.689484,0.0805 0.714073,0.13716 0.641569,1.47794 -0.113626,2.10125 0.153222,3.01956 0.848645,2.92047 0.52477,-0.0748 0.577165,-0.25791 0.647796,-2.26417 l 0.07685,-2.18281 h 0.78305 0.783049 v 2.33513 c 0,2.09879 -0.06198,2.39336 -0.612365,2.91042 -0.845811,0.7946 -2.60413,0.79262 -3.346078,-0.004 z m 5.016779,-2.34812 v -2.92718 l 0.84539,0.0829 c 0.70695,0.0693 0.98919,0.3212 1.72357,1.53812 0.48684,0.80673 0.85781,1.2194 0.83248,0.92604 -0.0251,-0.29104 -0.0268,-0.97565 -0.004,-1.52135 0.0368,-0.87077 0.12287,-0.99219 0.70338,-0.99219 h 0.66146 v 2.92799 2.92799 l -0.72668,-0.0837 c -0.56022,-0.0645 -0.92386,-0.41437 -1.5875,-1.52722 l -0.86082,-1.4435 v 1.50965 c 0,1.501 -0.004,1.50965 -0.79375,1.50965 h -0.79375 z m 5.82083,0.0168 v -2.91042 h 1.48167 c 1.33225,0 1.57238,0.0907 2.38125,0.89959 0.69585,0.69585 0.89958,1.11923 0.89958,1.86947 0,2.04761 -1.05328,3.03743 -3.24114,3.04589 l -1.52136,0.006 z m 2.8575,1.27 c 0.34758,-0.34758 0.42523,-2.02456 0.11501,-2.48383 -0.10691,-0.15829 -0.46227,-0.3555 -0.7897,-0.43825 -0.57106,-0.14434 -0.59531,-0.0814 -0.59531,1.54456 0,1.45585 0.0672,1.69502 0.47625,1.69502 0.26194,0 0.61913,-0.14288 0.79375,-0.3175 z m 2.75595,-1.20386 0.0751,-2.84427 1.91822,-0.0777 c 1.78091,-0.0722 1.91823,-0.039 1.91823,0.46302 0,0.46451 -0.16788,0.54076 -1.19062,0.54076 -1.01424,0 -1.19063,0.0784 -1.19063,0.52916 0,0.42838 0.17639,0.52917 0.92605,0.52917 0.81138,0 0.92604,0.0819 0.92604,0.66146 0,0.57956 -0.11466,0.66146 -0.92604,0.66146 -0.74966,0 -0.92605,0.10079 -0.92605,0.52916 0,0.45077 0.17639,0.52917 1.19063,0.52917 1.09361,0 1.19062,0.0539 1.19062,0.66146 0,0.64702 -0.0435,0.66146 -1.99332,0.66146 h -1.99333 z m 4.95666,2.71198 c -0.007,-0.0728 -0.0132,-1.02526 -0.0132,-2.11666 0,-3.97764 -0.15527,-3.57188 1.36676,-3.57188 1.61306,0 2.22873,0.29414 2.758,1.31762 0.74626,1.44311 0.28471,3.59212 -0.90865,4.23079 -0.50949,0.27267 -3.17796,0.38942 -3.20288,0.14013 z m 2.91807,-1.97093 c 0.44653,-1.078 0.0514,-2.17669 -0.87156,-2.42353 l -0.71037,-0.18998 v 1.69691 c 0,1.61057 0.032,1.69691 0.62936,1.69691 0.44743,0 0.72279,-0.22557 0.95257,-0.78031 z m 5.42953,-0.80719 v -2.91042 h 0.7276 0.72761 v 2.4919 c 0,1.37055 0.0723,2.68024 0.1606,2.91042 0.12679,0.33041 -0.0264,0.41852 -0.72761,0.41852 h -0.8882 z m 2.64583,6.1e-4 v -2.91024 l 0.70721,-3.9e-4 c 0.57396,-3.2e-4 0.88554,0.2847 1.65365,1.51268 l 0.94644,1.51307 v -1.51307 c 0,-1.43756 0.033,-1.51308 0.66145,-1.51308 h 0.66146 v 2.91042 c 0,2.90458 -0.001,2.91042 -0.64204,2.91042 -0.50327,0 -0.83209,-0.32882 -1.52135,-1.52136 l -0.87932,-1.52135 -0.0794,1.52135 c -0.076,1.4568 -0.10966,1.52136 -0.79375,1.52158 l -0.7144,2.1e-4 z m -49.344789,1.61992 c 0,-0.12733 0.37207,-0.30592 0.826823,-0.39687 1.262873,-0.25258 1.487763,-0.18413 0.760677,0.23151 -0.746076,0.42649 -1.5875,0.51414 -1.5875,0.16536 z m 58.406769,-0.0543 c -0.78043,-0.45457 -0.51404,-0.76206 0.39688,-0.4581 0.47294,0.15781 0.973,0.38974 1.11125,0.5154 0.35545,0.3231 -0.93949,0.27389 -1.50813,-0.0573 z m -62.324622,-1.20774 c -0.335808,-0.0741 -0.562998,-0.27444 -0.504867,-0.44512 0.07315,-0.21477 1.090724,-0.30898 3.304848,-0.30597 2.893467,0.004 3.83321,0.14663 3.455216,0.52462 -0.192074,0.19207 -5.534816,0.38551 -6.255197,0.22647 z m 62.324622,-0.007 c -2.63649,-0.31654 0.48636,-1.03375 3.62965,-0.8336 1.56825,0.0999 2.25513,0.30765 1.96757,0.59522 -0.18356,0.18355 -4.51677,0.36811 -5.59722,0.23838 z m -57.546873,-1.68269 c -0.502176,-0.20185 -0.855466,-0.78551 -0.47547,-0.78551 0.337563,0 1.467657,0.64389 1.467657,0.83622 0,0.27152 -0.218263,0.26037 -0.992187,-0.0507 z m 57.093303,-0.0975 c 0.39672,-0.37918 2.10722,-0.85024 2.10722,-0.58032 0,0.17842 -1.7917,0.95062 -2.20568,0.95062 -0.162,0 -0.11874,-0.16271 0.0985,-0.3703 z m -71.711532,-4.25381 c 0,-3.3711 -0.150185,-3.28493 5.688542,-3.2641 5.054109,0.018 4.038923,0.37055 -1.311197,0.4553 -1.788063,0.0283 -3.312158,0.17368 -3.505729,0.33433 -0.233151,0.19349 -0.342449,1.03388 -0.342449,2.63306 0,1.38951 -0.108064,2.34885 -0.264584,2.34885 -0.157776,0 -0.264583,-1.0122 -0.264583,-2.50744 z m 85.347982,-2.53537 c -0.50271,-0.50678 -0.50267,-0.51344 0.002,-0.51344 0.2815,0 0.66052,0.23812 0.84228,0.52917 0.44532,0.71306 -0.13253,0.7023 -0.84478,-0.0157 z m -55.262584,-0.45483 c -2.275696,-0.046 -3.58919,-0.17042 -3.490115,-0.33073 0.18795,-0.30411 13.542029,-0.30712 15.738049,-0.004 0.80037,0.11064 1.33615,0.22712 1.19063,0.25884 -0.4612,0.10055 -9.64281,0.15208 -13.438564,0.0754 z m 13.835434,-0.0466 c 0,-0.13893 0.38695,-0.32504 0.8599,-0.41359 1.06292,-0.199 9.45357,-0.055 9.45663,0.16233 0.002,0.17 -5.61416,0.50103 -8.53059,0.50278 -0.98227,5.9e-4 -1.78594,-0.11259 -1.78594,-0.25152 z m 33.3375,0.0109 c 0,-0.13298 1.6665,-0.25521 3.70417,-0.27169 2.37704,-0.0192 3.70417,0.0674 3.70417,0.24173 0,0.17292 -1.34658,0.27168 -3.70417,0.27168 -2.05953,0 -3.70417,-0.10732 -3.70417,-0.24172 z m -60.531027,-0.16961 c 0.198807,-0.19881 8.934402,-0.2089 9.13275,-0.0106 0.08652,0.0865 -1.965975,0.15731 -4.561097,0.15731 -2.595121,0 -4.652365,-0.066 -4.571653,-0.14675 z m 38.173737,-0.11783 c 0.092,-0.14884 1.34308,-0.26282 2.85989,-0.26054 1.83863,0.003 2.57011,0.0856 2.29949,0.26054 -0.53899,0.34831 -5.37465,0.34831 -5.15938,0 z m 13.09688,-0.26459 c 0,-0.14552 0.17859,-0.26458 0.39687,-0.26458 0.21828,0 0.39688,0.11906 0.39688,0.26458 0,0.14552 -0.1786,0.26459 -0.39688,0.26459 -0.21828,0 -0.39687,-0.11907 -0.39687,-0.26459 z"
       style="fill:#000000;filter:url(#filter65)"
       id="path1"
       sodipodi:nodetypes="cssssssssssssscsscccsssssssscssscssccsscccscsscccccccccsssscsssssssssscssssscssssssssssscssscsssssscssssscccsssssssssscscscccsccccsscccscscscsccccsscccsscccsssscssscccsccccssscccsssscscccsssscsscccssscccsscccsssscsssscssscccsscccssscccsssscssscsssccssscsscssssscssssscssssccsscsssssssssccsssssssssssssssssscssssssssssssccsssssssssssscsssssssssssscscccsssssscscssccsssssscssssscsssscsssssssscsssssssscsscsscsssssssssssssssssssssssssssssssssssssssssssssssssssssssccssscsscssscsssssscscssssssscsssssssssssssssssssssscssssscccssssssscssssssssssssssssscsssssssssssssscssssssssscsssssccscsssssssssssssscssscccsscscscssssssssssscscscssscsssscsccsssssssssssssscscsccsscsssssssssssssssssssssssssssssscsscsssssssssssssccssssssssscccscsscscccsscccccsccsccccscssccccssscccsssssscccsssssssssscccssssccsscsssccccscsccccsscsscsssccsccsssssssscscscscssssssscssccsccsssscsscccscsccsscssssssscssccsccssssss"
       inkscape:label="Stamp" />
    <text
       xml:space="preserve"
       style="font-size:13.8674px;font-family:roboto;-inkscape-font-specification:roboto;text-align:center;writing-mode:lr-tb;direction:ltr;text-anchor:middle;fill:#000000;fill-opacity:1;stroke-width:0;stroke-dashoffset:917.099;filter:url(#filter58)"
       x="112.84506"
       y="144.47968"
       id="text2"
       transform="scale(0.92893825,1.0764978)"
       inkscape:label="Years"><tspan
         sodipodi:role="line"
         id="tspan2"
         style="font-style:normal;font-variant:normal;font-weight:300;font-stretch:normal;font-size:13.8674px;font-family:'URW Bookman';-inkscape-font-specification:'URW Bookman Light';fill:#000000;fill-opacity:1;stroke-width:0"
         x="112.84506"
         y="144.47968">75 Years</tspan></text>
    <text
       xml:space="preserve"
       transform="matrix(0.64672345,0,0,0.94238627,-155.80376,-253.45499)"
       id="text1"
       style="font-weight:300;font-size:48px;font-family:'URW Bookman';-inkscape-font-specification:'URW Bookman Light';text-align:center;writing-mode:lr-tb;direction:ltr;white-space:pre;shape-inside:url(#rect2);fill:#000000;stroke-width:0;stroke-dashoffset:917.099;filter:url(#filter56)"
       inkscape:label="Year Founded"><tspan
         x="337.12537"
         y="404.14458"
         id="tspan4"><tspan
           style="font-weight:bold;-inkscape-font-specification:'URW Bookman Semi-Bold'"
           id="tspan1">1940</tspan></tspan></text>
  </g>
</svg>
