<svg viewBox="0 0 1254 1254"><defs><filter id="d" width="1" height="1" x="0" y="0" style="color-interpolation-filters:sRGB"><feTurbulence baseFrequency="2.5519 2.46118" numOctaves="5" result="turbulence" seed="256" type="fractalNoise"/><feDisplacementMap in="SourceGraphic" in2="turbulence" scale="2.6" xChannelSelector="R" yChannelSelector="G"/></filter><filter id="c" width="1" height="1" x="0" y="0" style="color-interpolation-filters:sRGB"><feTurbulence baseFrequency="2.5519 2.46118" numOctaves="5" result="turbulence" seed="256" type="fractalNoise"/><feDisplacementMap in="SourceGraphic" in2="turbulence" scale="2.6" xChannelSelector="R" yChannelSelector="G"/></filter><filter id="b" width="1" height="1" x="0" y="0" style="color-interpolation-filters:sRGB"><feTurbulence baseFrequency="2.5519 2.46118" numOctaves="5" result="turbulence" seed="256" type="fractalNoise"/><feDisplacementMap in="SourceGraphic" in2="turbulence" scale="2.6" xChannelSelector="R" yChannelSelector="G"/></filter><filter id="a" width="1" height="1" x="0" y="0" style="color-interpolation-filters:sRGB"><feTurbulence baseFrequency="2.5519 2.46118" numOctaves="5" result="turbulence" seed="256" type="fractalNoise"/><feDisplacementMap in="SourceGraphic" in2="turbulence" scale="2.6" xChannelSelector="R" yChannelSelector="G"/></filter></defs><path d="M584.4 1221.7A563 563 0 0 1 453 1196a614 614 0 0 1-126.6-56.4 671 671 0 0 1-72.3-50.4c-45-37.8-82.4-77-109.6-115a601 601 0 0 1-65.9-115.5l-5-12A628 628 0 0 1 41 734.9a554 554 0 0 1-5.4-172.2l1.9-15.8c.2-2.7.9-5.7 1.5-6.8 1.3-2.4 5-2.6 5-.2q0 1.7 2.6-2c1.5-2.1 3.5-3.7 4.6-3.7q2 0 1.4-1.6l-.7-2q-.1-.3-1.6.2c-.8.4-2 0-2.4-.7-1-1.5-.9-1.6-3 2.5-2.1 4.2-5 4.6-5 .7 0-6.5 4.2-25.8 12.1-56.1 22-84.3 70.6-173.6 133-244.5 14-15.9 16.5-18.2 18.4-16.6 2 1.7 2 4-.2 4.8-1.8.7-5.2 4.2-5.2 5.5q.1.7 2 .8c1 0 2 .6 2 1.5 0 2.6 1.8 1.5 2.4-1.5.4-1.7 1.3-3 2-3 .8 0 2.1-.8 3-1.7 1.4-1.4 2-1.4 4-.4 1.3.7 2.8 1 3.4.7q1-.6 1.6.2c.7 1.1-1.8 6.1-3.6 7.3q-1.5.8-.1.8c2 0 1.4 2.4-1.4 4.8-1.5 1.2-2.4 2.6-2 3q.7.5 1.4-.4c1.2-1.8 6.2-2.1 6.2-.4 0 .8-17.9 22.1-23.1 27.6-1.7 1.7-2 1.7-2.9.5-.5-.9-1-2.6-1-3.8q0-2-1-2.2-1.5 0-1 3.7 0 1.2-1 1.3a1 1 0 0 0-1 1q.1.8.8.8c2-.3 4.2.3 4.2 1a94 94 0 0 1-8.3 11.5 593 593 0 0 0-31 43.2 650 650 0 0 0-62.3 127 600 600 0 0 0-20 73L68 542.2a800 800 0 0 0-7.6 73A606 606 0 0 0 71 736.7a746 746 0 0 0 15.4 60.8c.6 3.3.4 3.8-1 3.5q-1.6-.4-1.6-1.1 0-.9-1.4-2.4c-1.5-1.5-1.8-1.5-3.7.4q-2.1 2-1.2 4c.4 1 .6 2.8.5 4q-.2 2.2 1.3 2.3c.7 0 2 .7 2.7 1.5 1 1.3 1 1.8 0 2.4q-1.5.9.3 1.4 1.5.6 1 2.1t1.1 1.6q1.8-.1 1 1.9-.7 2.1 1.4 1.4c1.7-.5 1.8-1 1-3.7-.6-1.7-1.2-4.3-1.2-5.6-.1-1.4-.7-3-1.4-3.3-1.9-1.2-1.5-3.5.7-4.7s2.3-1.2 5 7c1.2 3.5 2.8 7.8 3.6 9.5a535.3 535.3 0 0 0 23.7 54.8c4.3 8.7 7.7 16 7.7 16.4 0 .2-1.3.3-3 0-3.3-.4-5 1-2.9 2.3 1.1.7 1 1.2-.4 2.8-2 2.3-1.4 7.3.6 5.3 1.4-1.4 3.7-1.5 3.7-.2q-.2.9-2 1.6c-3 1-1.4 2 2.6 1.6 3-.3 3.5 0 4 2.5.5 1.6.8 3.7.7 4.7q0 1.6 1 1.4c.6-.2 1.1-2.1 1.2-4.2s.5-4 1.1-4.2 3.8 4 7 9.3 9.6 15.3 14.2 22.3c5.2 8 7.8 12.9 7.2 13.5-1.2 1.2-1.3 7.3 0 8 .5.3 1.2-.8 1.5-2.4.4-1.7 1-3 1.5-3s3 3 5.6 6.6c4.5 6.3 4.7 6.7 3.3 9.2-1.1 2-1.2 3.2-.4 4.9.5 1.2 1.4 2.3 1.8 2.3q.6.1.7 1.3.1 1.4 1.5 2c2 .7 2 .3 0-3.5q-1.7-3-.6-4c1.4-1.5 2.4-.6 7.7 6.4a292 292 0 0 0 16.7 20.3c2 2.3 3.7 4.4 3.7 4.7 0 1.2-3.3 1.7-4.6.7q-1.3-1.4-2.9.4c-2.1 2.2-.4 5.4 3 5.4 2.6 0 5.5 1.8 5.5 3.4q-.1.8-1.4.9c-1.9 0-.8 3.7 1.4 5 1.4.7 2.1 0 3.9-3.1 1.1-2.2 1.7-3.8 1.2-3.5s-1.4-.1-2-1-1.9-1.4-2.5-1.4-2-1-3-2c-1.6-1.8-1.6-2 0-2.9s5 2 21.4 18.2c10.8 10.5 26 24.7 33.8 31.6 7.8 6.8 14.2 12.8 14.2 13.2q-.2.8-2.2.9-2.7-.1-.8 1c1.4.8 1.4 1 0 2q-1.5 1.1-.2 1.6 1.1.6 1.2 2c0 .7 1 1.4 2 1.4 2.6 0 3.5 1.6 1.4 2.8q-1.4 1-1 2c1.2 1.8 2.6 1.3 2.6-.8 0-1 .8-2.3 1.6-2.8 1.3-.8 1-1.4-2-3.6q-3.4-2.6-3-4.2c1-2.3 2.2-1.8 9.1 3.7 5.8 4.6 6.3 5.3 5 6.7-1.3 1.2-2 1.3-4 .4s-2.8-.8-3.7.3c-1.6 2-1.2 2.2 6 4.4 6 1.8 6.1 1.8 5.5 0q-.4-1.7.5-2.4 1-.5 1 .5.2 1 1.4.6a36 36 0 0 1 10.8 6c8.1 5.6 9.4 6.9 9.4 9.4 0 1.6.4 3.2.7 3.6.4.3.2 1.4-.3 2.4-1.4 2.6.8 3.7 2.5 1.3 1.2-1.6 1.2-2 0-3.4-1.6-1.7-2-5-.6-5 .4 0 4.5 2.5 9.1 5.6a190 190 0 0 0 17.7 10.8 708 708 0 0 0 42 23c5.2 2.6 9.3 5.1 9.3 5.7 0 1.8-3 2.3-5.8 1-3.1-1.6-7.2-2.2-7.1-1.2a45 45 0 0 0 11.2 5.5c2.1.7 2.3 2.7.3 2.7-2.3 0-.7 2.8 2.5 4.5 3 1.5 7 2 7 .8 0-.4-1-1.7-2.2-3-2-2.2-2-2.3-.3-3a14 14 0 0 0 3.7-2.2q1.8-1.5 1.7-.2.1 1.2 1.7.6a49 49 0 0 1 13.2 4 955 955 0 0 0 64.9 21.9c4.8 1 4.2 3.6-.8 3.6-4 0-5.6 2.1-2.4 3.3.8.3 1.9 1.6 2.3 2.8.8 2 5.1 3.5 5.1 1.7q-.2-.8-2-.8c-3 0-2.6-3.9.5-4.6 1.3-.4 3-.3 3.6 0q1.3 1 0-1.3c-.6-1.1-.7-2.2-.3-2.5s8.4 1.3 17.7 3.4a684 684 0 0 0 32.5 6.5c51.8 8.9 108.8 9.5 164.5 1.8 18.2-2.5 20.5-2.7 20.5-1.5q0 1-1 1.7c-2 1.2-1 2.5 1.5 1.9q2.5-.6 2.5.4.2 1.1 1.5 1.2c.8 0 1.9.7 2.4 1.6q1 1.5 2 .9 1.4-.7.2-2-1-1.2-.5-1.8c.3-.3-1.3-1.2-3.5-2.1-6.7-2.7-5.6-3.8 6-5.6 3.5-.6 8.7-1.7 11.4-2.5 6-2 11.9-2 11.3-.3-.2.7-1 1.3-1.5 1.3-1.9 0-5 4.4-4.6 6.4.7 2.6 5.1 3.6 7.3 1.6q1.7-1.4 2.9-1.5 1-.1 1.1-1-.2-.7-2-.3c-1.6.4-2 0-2-2.4 0-6.4.6-7 10.4-9.6a646 646 0 0 0 60.6-19.7c3-1.2 6.3-2 7.2-1.7q1.6.4 1.8-.8c0-1.2 7.7-4.3 9.3-3.8q.7.1.7-.6c0-1.2 8-4.3 9.1-3.6 2.2 1.4.7 3.4-3.3 4.5l-4.5 1c-.1 0-1.2.9-2.3 2-1 1-3 2-4.3 2a9 9 0 0 0-5 2.4c-2.3 2.1-2.4 2.5-.9 3.1a8 8 0 0 0 3.6.5q2-.3 1.3 1.4c-.7 1.7 1.8 2.2 2.8.6.4-.6 1.6-1 2.7-1q1.9 0 1.3-1.2c-.4-.6 0-1.7 1-2.5q1.7-1.3 1.2-3c-.4-.8-.2-2.2.4-3 1.5-1.7 6 .3 6 2.8 0 1 .7 1.9 1.6 1.9q1.8.1.4-1.5-1.1-1.4-.1-2c.5-.3.7-1.3.4-2q-.4-1.4.6-1.5 1.2 0 .5-3.5l-.7-3.4 13.4-6.7a568 568 0 0 0 44.3-24.4 626 626 0 0 0 89.7-66.8 39 39 0 0 1 10.6-7.8q1.3.5 1-1c-.1-.7 6-7.8 13.8-15.6 21.4-21.9 35-38 50.3-59.3 7.2-10 9.9-12.1 13.4-10.3q1.8.8 4.5-.7l5.5-2.7q4.6-2 1.2-3.2c-2.8-1.1-1.7-4.5 2.2-6.1 3.5-1.5 3.6-1.6 1.8-3.5-1.7-2-1.8-2-4.1.6-2 2.2-2.7 2.3-4.1 1.2l-2.1-1.5c-.2-.1.5-1.5 1.6-3a659 659 0 0 0 28.1-48.3c.9-1.4 1.6-2.8 1.6-3s.7-2 1.4-3.8c1.2-2.8 2-3.3 5-3.4q4.4 0 .9-.6c-1.5-.2-2.8-.8-2.8-1.3a61 61 0 0 1 3.5-8.2c7.1-15.3 17.6-42 24-61.5q6.8-20 8.2-20.2 1.2 0 1.3 1.5.1 1.4 2.5 1.5c3.6 0 3.9-.2 4-3.4 0-3.9-2-5.4-4.3-3.3-2 1.8-4.2 2.2-4.2.7q.1-.9 1-1.6.9-.6.6-1.4c-.5-.7 2.7-15.5 7.5-34.5a647 647 0 0 0 9-59.5 668 668 0 0 0-2.6-122.5 545 545 0 0 0-16-76.5c-3-10.3-3-10.2 0-9.5 1.8.5 2.7.1 3.5-1.5 1.4-2.5 3-1.8 2.5 1-.3 1.5 1.6 6.4 4.2 10.8q.3.2 1.2-.3.8-.7-1.5-4.3t-2-5.9c.4-1.2 0-2.6-.9-3.4-.8-.6-1.5-2.7-1.5-4.6 0-3.1-.2-3.3-2.5-2.8-2 .6-3.3-.4-2.2-1.9q0-.5-1.2-2-1.3-1.8-.4-2.5c1.3-.9 1.2-5.5 0-6.4-2-1.3-3.5-.8-3 1.1q.7 1.9-2.2 2.6c-1.5.3-2.8.5-3 .4l-3-8.3c-1.5-4.4-5-13.6-7.7-20.4-4.9-12.5-5.1-15.4-1-13.6 1 .4 3.3.6 5.1.5q3.1-.1 2.7.8t.6 1.7c2.3 1.5-.1-5.7-3.2-9.2-1.6-1.9-3-3.9-3-4.4q-.2-.9-2.5-1c-2.5 0-2.6.3-2 3.9.5 2.8.3 4.1-.9 5.1-1.4 1.1-2 .3-5.1-6.6a647 647 0 0 0-38-70.6c-17.1-27.2-16.3-25.7-14-25.7q1.2.2 2 2.2c.3 1.3 2 3 4.4 4 4.5 2 6.2 2.3 3.7.4q-1.9-1.4-2-5.1c-.1-3-.7-4-2.8-5.2q-4.5-2.2-1.6-5.1 1.6-1.4-.9-1.2c-1.2 0-2.7-.9-3.4-1.9-.8-1-2.4-2.2-3.7-2.6-2.1-.7-2.2-.6-1 1.6.8 1.3 1.7 2.6 2.2 3 1.3.9 1.3 7.4 0 7.4a81 81 0 0 1-10.4-12.5 769 769 0 0 0-34.8-43c-2.7-3-4.8-5.9-4.5-6.3.3-.5 2-.5 4-.2 3.4.7 3.5.6 3.2-2.2-.3-2.4-.8-2.8-2.9-2.6-1.3.2-3 1-3.6 1.8q-1 1.3-2 1.5c-.6 0-6.8-5.8-14-12.9a645 645 0 0 0-35.7-32.9c-2.8-2.5-3.6-3.9-3.1-5.3.8-2.6 2.3-2.5 5.9.4l3 2.4 1.3-2.5q2.2-4.7-1.2-2.3c-1.5 1.3-4 .5-3-1 .4-.7-4.8-7-6-7-.3 0-.6 1-.6 2q0 1.9-1 2t-1 1.6c0 3.6-3.4 2-17-8.3a767 767 0 0 0-44.7-30.6c-4.3-2.7-5.5-4.6-2.8-4.6.8 0 2-.9 2.5-1.9.8-1.6.6-1.8-2-1.8-1.6.1-3 .7-3 1.3 0 2.7-2.2 2.2-9.2-1.8l-13.3-7.6c-7.3-4.2-6.8-3.7-5.5-6.2 1.4-2.6 2.5-2.6 5 0 1.2 1.1 2.6 1.7 3.2 1.3q1-.7-1.5-2c-1.5-.8-2.7-1.8-2.7-2.4s-1.6-1-3.5-1q-3.4 0-3 1.1.5 1-.4 2.4c-1 1-4.6-.3-19.8-7.4-19.5-9.1-35-15.5-53.8-22.2l-15.2-5.4c-.6-.1-7.4-2-15-4.3s-15-4.3-16.7-4.6l-2.9-.7 2.1-2c1.9-2 2.5-2 4.8-1q2.8 1.5 2.2 0c-.2-.8-1.4-1.5-2.6-1.7s-2.2-1-2.2-1.8c0-1.3-.7-1.5-3-1-1.8.4-3.8.7-4.6.7s-1.9 1.1-2.4 2.6c-.8 2.2-1.4 2.5-3.7 1.9l-9.7-2.2c-3.8-.8-7.3-1.7-7.7-2-1.6-1 .2-2.3 3-2.4 1.4 0 4-.9 5.6-2 2.8-2 2.8-2 .5-1.3-1.3.4-3.8.8-5.5.9l-6.7.3q-3.9.1-3.8 1.7c0 1.8-1.4 1.8-11.8 0a891 891 0 0 0-77-7.5c-1.9 0-1.4-1.7 1-2.7 1.8-.8 1.9-1 .6-2.2-1.3-1-2.1-.7-4.9 1.8-2.7 2.5-4.1 3-8.2 3q-5 0-4.4-1.2c.2-.7 1.5-1.4 2.8-1.6 2.8-.4 6.4-4 7.2-7.1q.8-2.4-1-1.6c-.9.3-2 0-2.4-.7-.7-1-1.3-.7-2.7 1q-1.6 2.1-2.5 1.5c-2.4-2.3-6 2.5-5 6.5q.5 2-1.3 2.7c-1 .4-11.3 1.4-22.9 2.1a647 647 0 0 0-33 3c-24.5 2-75.3 13.7-109.7 25a208 208 0 0 1-20.8 6.3q-.7-.5.5-3.1c1.6-3 1-3.7-1-1-1.8 2.4-4.8.9-4.2-2.2.4-2.3.4-2.4-1.7-.8l-2.2 1.7 3 2c3 2 4.8 5.6 2.8 5.6-.6 0-10.6 4-22.2 9s-21.2 9-21.5 9q-.3-.1 0-1.3c1-2.3-1-4-3.8-3.4-2.3.6-2.6 1-2.2 4.5l.3 3.8-10.3 5.2c-5.7 2.8-11 4.8-12 4.5q-1.4-.5-1.5 1c0 .9-1 2.2-2.2 3l-11.3 6.7a752 752 0 0 0-68.3 47.4q-2.5 2-3 .8c-.1-.7-1-1.2-1.8-1.2q-1.4 0-.8 2.4c.8 3-2.6 5.4-4.5 3.2-.9-1.1-.3-2 2.5-4.5 2.9-2.6 3.4-3.6 2.8-5.4-.4-1.2-.8-2.7-.8-3.2q-.2-1-1.7-1.3-1.7-.4-2 2-.3 2.3-3.4 2.9-2.5.6-1.1.7 1.7.3 1.2 1.4l-1.2 3q-.6 1.6-2 1.8c-.8 0-2.3.8-3.4 1.8a5 5 0 0 1-4.3 1.4q-2.4-.5-4.6 2.4c-1.3 1.6-1.7 3-1.1 3.2 1.6.5 1.3 3.2-.4 3.2q-1.3-.1-2-1.3-.3-.9 0 1.5c.6 2.4.4 2.8-2 2.8-1.4 0-2.6-.4-2.6-.9 0-.8-10.5.3-14.1 1.4a4 4 0 0 0-2.3 2q-.7 1.7 1.4 1 1.8-.6 2.9 1.1c.8 1.4 1.2 1.5 2.4.6q1.4-1.1 2-.6.6.7-1 2-2.4 1.5-.1 1.3c2.5 0 4 2.4 2.6 4q-1.5 1.4.5.5c1-.4 2.3-1.5 2.8-2.6 1-2 6.3-2.6 7.4-1 .6 1-16 17.7-17.7 17.7-.7 0-1.7-1-2.2-2.3s-1.6-2.2-2.2-2.2q-1.2 0-.7-3.3c.3-2-.1-4.4-1-6.2-1.5-2.7-1.4-3.1.1-4.8 1.6-1.8 1.6-2 0-2.9q-1.8-1-1.2-3c.5-1.7.4-1.8-2-.7q-2.8 1.3-3.7.1c-.8-.8.8-3 5.8-8q15.4-15.2 17.5-15.2 1.4-.2 2.4-2.3c1.3-3.1 5.4-3.7 5.4-.7a5 5 0 0 1-1.7 3.6c-1.6 1.2-1.6 1.3.5 1.3q3 0 2.4 3.3 0 .7.8.8c.5 0 1.3-1.6 1.6-3.6.8-4.3 2-5.1 4.4-3 1.7 1.5 1.8 1.4 2.4-1.4.3-1.7.3-3.7 0-4.6q-.7-1.6 1.5-2.1 2-.6 2.1-1.5c0-1-3.3.6-6.8 3.3q-5 3.7-5.2-.5c0-5.8 53.5-45.2 87-64.2a72 72 0 0 1 11.3-5.7 122 122 0 0 1 18.2-10.3c10.4-5.2 14-6.5 14.5-5.5q.8 1.6 2-.9c.7-1.3 4.6-3.8 9.4-6 10-4.7 25.6-11 27.1-11a496 496 0 0 1 86.8-26.7 423 423 0 0 1 63.7-11c22.2-2.8 76.2-4.2 99-2.5a593 593 0 0 1 121.5 20.7c17.6 5 28.3 8.7 30.3 10.5 1 .9 2.4 1.4 3 1.2 1.4-.5 6.5 1 14.2 4.2 3 1.3 8.7 3.6 12.5 5 15.9 6.3 25.5 10.8 25.5 12q.1 1.3 2 .9c2.5-.7 10.2 3.4 10.8 5.8q.5 2.2 1.4.7c.6-1 3.6 0 13.6 5.1 15.9 8.1 36.2 20 36.2 21.2q.2.8 1.4.9c2.6 0 6.5 3.8 6 6q-1 3.5-5.8.4c-2.2-1.4-2.3-1.4-2.9.7-.5 1.9-1 2-4.6 1.6-3.5-.5-4-.3-4 1.3 0 2.2 1.3 2.4 5.6 1 2.3-.9 3.8-.7 6.7.4 2 .9 3.6 2 3.6 2.5s1.1.3 2.5-.3q2.3-1.1 1.5-2.1c-1.2-1.2-1.2-5.2 0-6 1.6-1 31 19.7 53.5 38 8 6.4 10.8 10.7 8 11.8q-1.3.6-.9 2c.3.8 0 1.8-.5 2.1-1.2.7 2.9 4.6 4.8 4.6 2 0 2.3-2.2.6-4.1s-1.7-2.1-.2-3.6 2.3-1.1 10 5.5a471 471 0 0 1 42.6 42.7c16.5 15.2 53.8 65 72.5 97l5.6 9.5a650 650 0 0 1 32.2 62.7c3.6 7.6 15.8 38.1 15.8 39.5q-.1 1-1.7 2.3-2 1.4-.3 1.1 1.5 0 1.9.9c.1.5 1 1.7 1.8 2.6 3.8 4.2 18.3 57.8 23.8 87.9 4.8 26.5 7.5 55.6 8.2 90 .6 26-.7 60.2-2.7 75.9l-1.5 11.6a595.1 595.1 0 0 1-143.8 313.3c-8.1 8.9-11.6 12.2-13.3 12.2-1.3 0-2.4.4-2.4 1q.1 1 1.1.4c5.7-3.5-19.4 22-38 38.6a592 592 0 0 1-179.9 111A597 597 0 0 1 712 1217a454 454 0 0 1-76 5.5c-23.4.3-40 0-51.5-1m68.4-5.6q-.4-1-1.4-1.1-.8.1-1.3 1-.2 1.1 1.3 1.2 1.6-.1 1.4-1.1m15.7-2q-.2-2.6 2.2-2.5c3 0 5-2 2.8-2.8q-1.5-.5-1.6.3c0 .5-2.3.7-5.2.4-2.8-.2-4.9-.1-4.5.2 1 1.1-1.2 4.5-3 4.5q-1.5 0-.7.9c1.3 1.2 4.4 1.9 7.4 1.7 2-.1 2.5-.7 2.6-2.6m-22 1q.4-.9-.4-1-1 .1-1.7 1-.4 1 .4 1 1 0 1.6-1m-70.3-2q-.5-2.3-1.3-.8c-.9 1.4-.4 2.9 1 2.9.5 0 .6-1 .3-2.1m76.7-.8q.2-.9 2.3-1.5t1.6-1.2c-1-1-5.9.7-5.9 2.2q.1 1.2 1 1.4 1 0 1-1m-96-1.1q0-1-1-1a1 1 0 0 0-1 1q.1.9 1 1 1-.1 1-1m123-2.5c0-1-1.9-1.5-2.4-.6q-.5 1 .9 1t1.5-.4m50.9-1.1c.8-.7-1.1-2.4-2.9-2.4q-1.8 0-1.7 2 0 2.1 2.2 1.3c1.1-.3 2.2-.7 2.4-1m-190.7-1.2c1-1 .3-1.2-3.4-1.2-4.8 0-7.8.7-7.8 1.9s9.9.6 11.2-.7m-21-1.8c-.5-2.8-2.2-4.4-2.2-2q0 1.5-1.5 1.6c-1.5 0-2 1.1-.8 2.3.4.4 1.7.7 2.9.7 1.8 0 2-.5 1.7-2.6m219.8.7c0-1-.8-2.1-1.8-2.4q-2-.8-1.4 1.9c.6 2.8 3.2 3.2 3.2.5m-179-.5c0-1.1-1.5-2.2-6.5-4.5q-.7-.3.8 1.5c1 1.1 1.7 2.5 1.7 3.2 0 .6 1 1.2 2 1.2q1.8-.1 2-1.4m7.5-1.6q.5-1-.9-1-1.5 0-1.6 1 .1.9 1 1 .9-.1 1.5-1m121-.7c1.4-.9 2.5-2 2.5-2.6q0-.9-1.2 0c-.7.6-2.6 1.2-4.2 1.4-3.4.4-4.8 2.9-1.6 2.9 1.2 0 3.2-.8 4.6-1.7m19.5.7q0-2.4-4-.4l-2.5 1.3h3.3c1.8 0 3.2-.4 3.2-.9m-125-.5q0-.4-1-1t-1 .4q.1 1 1 1t1-.4m183.7-1.9q2-.8 2.7-3.7c.5-2.5 1-3 3.6-3 3.3 0 3.3 0 2.4-2.4-.7-2-2.4-2-2.4 0 0 1.3-.6 1.5-2.9 1-1.6-.4-3.1-.2-3.5.4s-1.5 1-2.5 1-2.5 1.4-3.4 3.3c-1.4 3-1.4 3.3.1 3.9 2 .6 2.7.6 5.9-.5m-67.7-2.2c0-1.6-2.2-4.4-3.4-4.4-2 0-2.7 2.7-1.3 5 .9 1.4 1.6 1.6 3 .8q1.6-1 1.7-1.4m-36.8-.7q-1.1-1-1.2-.1c0 1.3 1.2 2.5 1.9 1.8q.4-.5-.7-1.7m-171.6-.3c3.2-1.4 3.5-1.8 2.3-3q-2-2-8.9-1.6c-2.7.2-5.7 4.7-3.6 5.5 2.4 1 6.5.6 10.2-1m27.9.2q3.5-2.7-3.7-1.9c-4.2.5-5 1.9-1.5 2.5l2.8.6c.3 0 1.4-.5 2.4-1.2m69.5.4q0-1-1-1a1 1 0 0 0-1 1q.1.9 1 1 1-.1 1-1m96.8-.2c2-2 1.4-2.6-2.8-2.6-3.9 0-4 .1-2.3 1.9q2.9 3.1 5.1.7m-181.4-2.7q-4.3-.5-3 1.7.7.9 3.1-.2l2.5-1.1zm68.7 1.2c1.2-1.4 1.1-1.5-.5-1.2-1 .2-2 1-2.3 1.6-.6 1.8 1.3 1.5 2.8-.4m6.4.7q.5-1-.9-1-1.5 0-1.6 1 .1.9 1 1 .9-.1 1.5-1m89 0q.5-1-.3-1-1 0-1.7 1-.4.9.4 1 1-.1 1.6-1m24-1.1c-.3-.5-1.6-1-2.8-1-2 .1-2 .2-.3 1.6 2 1.4 4.1 1 3.1-.6m-142.1-1.2q2-.9.6-2.2c-.9-1.2-1.6-1.2-4.3 0-4.2 1.7-5 4.8-1 3.9 1.6-.4 3.7-1.1 4.7-1.7m15 1q.6.4.6-.6c0-.6-1.3-1.1-3-1.1s-3 .3-3 .8c0 1.6 1.3 2 3 1.2q1.6-.9 2.4-.3m-65.9-.7q.5-1-.3-1-1 0-1.7 1-.4.9.4 1 1-.1 1.6-1m30.3.3c1.3-.3 2.2-1.4 2.2-2.5 0-1 .5-1.7 1-1.3q1 .4 1-.4c0-1.5-2.2-2-4.7-.8q-2.5 1-1 1.8c1 .7.8 1.2-.7 2.4q-3.1 2.3 2.2.8m-64.8-1.7c3.3.7 4-.3 1.4-2.1-2.1-1.6-.8-3.8 1.7-3q2 .6 2-1c0-1.5-3.6-3-6.2-2.4-.7.1-2.3-.2-3.4-.8-1-.5-3.5-1-5.3-1-2.6.1-3.6.7-4.2 2.4q-.7 2 0 2.8 1 .3 1-.5.2-1 1.7-1t1 1.4 1.4 2.6c1 .5 2 1.7 2 2.5q-.2 1.8 1.9.5a9 9 0 0 1 5-.4m320 .3q.9 1.4 1.4-.4c.4-1 .6-2.4.6-3.3 0-1.4-.2-1.4-1.8.1-1 1-2.3 1.7-3 1.7q-1 .1-1.2 1.6-.2 2 1.6.3c1.3-1 1.8-1 2.4 0m-73-1q0-.9-.4-1-.4.1-1 1t.4 1q1 0 1-1m33.3-.8c.6-.6 1.8-1.1 2.5-1.1q1.5 0 .7-2.1-.8-2.2 1.5-2.6 1.8-.6 2-1.4-.2-.8-2.4 0-2.5 1.1-4-.5-2.6-2.7-2.6 0-.1 1.5-1.8 1.6-4.2.1-1.4 2.5c1.4 1 1.4 1.5.4 2.7s-1 1.6 0 2q3 1 5-1m57.7-3.2c0-1.3-2.8-2.4-3.7-1.5q-.5.7.8 1.6 3 1.8 3 0m-326-3q0-.9-1-1-1 .1-.5 1 .7 1 1.1 1 .3 0 .4-1m20 0q-.2-.9-2.2-.9-3.2-.2-.3 1l2.3.9q.2 0 .2-1m8 0q0-.9-1-1a1 1 0 0 0-1 1q.1 1 1 1t1-1m305.6-.9q-.8-1-1.7-1-1 0 .2 1.5c1.3 1.6 2.6 1.3 1.5-.5m-309.4-2.7q-1.2-2.2-1.1-.3c0 1.7 1 3.2 1.7 2.5q.3-.5-.6-2.2m-25.3-3.1c1.1-2-.3-3.6-3.6-4q-2.4-.6-2.3 1.7 0 1.9-1.7 2.2-1.8 0 .7.9c4.1 1.3 6 1 6.9-.8m-50.6 0c-.7-.2-1.3-1.5-1.3-2.9q0-4.2-5.5-3c-3.8 1-3 3.3 1.8 5 3.9 1.4 8 2.2 5 1m421.7-5.3c3.3-1.7 3.4-1.9 1-1.9-1.3 0-4-.3-5.7-.6q-5.3-1.2-1.6 2.7c2 2.2 2 2.2 6.3-.2m-21-1.4c0-1.5-3.7-3.2-4.7-2.2-.8.9 1.8 3.7 3.4 3.7q1.2-.1 1.3-1.5m-407.5-2.6c-.3-.5-1.3-1-2.1-1q-2-.2-.4 1.5c1.3 1.6 3.5 1.1 2.5-.5m-13.5-2.6c0-1.9-1.6-1.7-2.3.2q-1.5 4.3.8 2.5c.9-.7 1.5-2 1.5-2.7m442 2.2q0-1.4-1-1.5-.9 0-1 1.5.1 1.3 1 1.5 1-.2 1-1.5m19.7-6.3q-.5-7-3.8-2.8c-1 1.4-1.7 3-1.4 3.5q.5 1-1 1.7c-1.3.5-1.3.7.2 1.9 2.6 1.8 6.2-.7 6-4.3m-481.3-1.7q-.5-1.5 1-1.5 1.5-.1 1.6-1.1-.1-1-2-.4c-1.8.5-2 .3-1.4-1.8.5-2 .2-2.6-2-3s-2.5-.2-2 1.8q.6 2.3-1.1 3.2-3.1 1.5 3.4 3.3l2.9.9q.1-.1-.4-1.4m448.1.5c.8-1.3-.5-1.3-2.5 0q-1.8 1.1.2 1 1.7-.1 2.3-1m46.3-.8q1.4-1.2 2.8-2c1.2-.7 1.3-1.4.5-3.3l-1-2.4-.6 2.2q-1.3 4-4 .5c-1.3-1.7-1.4-1.7-1.4 0q0 1.8-2.4 1.8c-2 0-2.4.5-2.3 2.3.1 2 .7 2.3 3.6 2.2 2 0 4.1-.6 4.8-1.3m-468.4-5c.7-.6-3.2-5.2-4.5-5.2-.4 0-1.5 1.3-2.4 3l-1.5 3h3.9c2 0 4.1-.4 4.5-.7m-40.4-2.7q2.1-2.5-1.4-1-1.4.7-1.6 1.6c0 1.3 1.7 1 3-.6m495-.5q0-1-1-1t-.5 1 1.1 1 .4-1m37.8-9.2q-.3-3.1-.9 1-.5 3.1.4 2.3c.5-.5.7-2 .5-3.3m9.2-1.4c0 .3 1 .1 2-.4 2.6-1.4 2.7-4 .2-4q-3-.1-4.5 4.3-1 2.3.8.7 1.4-1.1 1.5-.6m17.3-9.3c2.1-1.3 3.6-2.6 3.4-2.9s-1.6.4-3 1.3q-3.7 2.6-2.7-1.9 0-.6-1-.2-.8.7-.5 1.6.4.8-.4 1.4c-1.2.8-1.5 3.9-.3 3.4zm-30.8-3.1q.5-1-.9-1-1.5 0-1.6 1 .1.9 1 1 .9-.1 1.5-1m11.3-4.2c-.6-1.9-2.8-2.2-2.8-.4 0 .8.8 1.6 1.6 1.6q1.4-.1 1.2-1.2m4 .5q-.7-.5-2 0-1 .5.7.6t1.3-.6m22-1.4q-.3-1-1.3-1.1-.8.1-1.3 1-.2 1.1 1.3 1.2 1.6-.1 1.4-1.1m8-1.6q-.7-.5-2 0-1 .5.7.6t1.3-.6m-636.2-7.1c-1-1-2.8 1.5-2 2.8q.7 1.4 1.7-.5.8-1.7.3-2.3m-4.6.8c0-1.8-4-5.2-5.2-4.4q-1 .7 1.8 3c3.4 2.7 3.4 2.7 3.4 1.4m31-.4q-.1-.5-1.5-1t-1 .4c.6 1 2.5 1.4 2.5.6m-14.4-8.7c1-1.8-.2-2.1-1.5-.5q-1.2 1.5-.2 1.6 1-.1 1.7-1.1m-31.9-4.1q-.4-1.2-.6.6 0 1.6.5 1.3.6-.7.1-2m-4.7-.8q0-1-1-1t-.5 1 1.1 1 .4-1m-3.4-4.9c-.8-.8-2.6 1-2 2q.8 1 1.5-.3.8-1.2.5-1.7m27.4-1.8q0-1.5-1.5-1l-2.1.7q-.4 0 .1 1c1 1.5 3.5 1.1 3.5-.7m-8.5-2.3q.5-1-.4-1t-1 1q0 .9.4 1 .4-.1 1-1m-4.2-2c.3-1 0-2.5-.9-3.1q-1.5-1.7-1.4 2c0 3.4 1.5 4.1 2.3 1m671.1-2.6q-.6-1.2-1.4-1-.7.8-.3 2 .6 1.4 1.4 1 .8-.6.3-2m-695.6-1.8q-1.7-1.3-1.8-3c0-2.4-1.4-2.7-2.8-.6q-1.5 2.2.4 2 1.5 0 1 1.5t2.2 1.4c2.5 0 2.6-.1 1-1.3m-8.4-2q.5-1.5-2.4-1.9-5-.9-1.2 1.9c2.2 1.7 3 1.7 3.6 0m-4.8-6.6c-.4-.7-1.4-1-2.2-.6-1.9.7-4.4-.4-4.4-2 0-.7-1-2-2.1-2.9-4.1-2.8-3.2-.5 1.7 4.5 4.2 4.3 5 4.8 6.3 3.5.7-.7 1-1.9.7-2.5m8.4 1c-2-1.3-3.2-1.3-2.5 0q.8.9 2.4 1 2 .1.1-1m711.5-1q.5-1-.4-1t-1 1q0 .9.4 1 .4-.1 1-1m5.2-5.2q-.5-1.2-.6.6 0 1.6.5 1.3.6-.7.1-2m-745.5-10.2c-1.2-1.1-2.4-1.8-2.7-1.4-.9.8 2.7 4.7 3.8 4 .5-.2 0-1.4-1.1-2.6m21.7-1.1c1.3-3 .5-3.4-1.5-.8q-2.3 3.2-.5 3.3c.4 0 1.3-1.2 2-2.5m741.1 1q0-1.4-.3-1.5-.5 0-1 1.5-.5 1.4.4 1.5.9-.1 1-1.5m22.7.4q1.2-1 0-3.5l-1.1-2.3-2.3 2c-2 2-2.1 2.2-.5 3.5 2.1 1.6 2.6 1.6 4 .3m-767.2-6q-.6-.9-1.6-1-.8.1-.4 1 .7 1 1.7 1 .8 0 .3-1m757.8-3.3c1.4-2 1.4-2.4-.1-3.4s-1.5-1.2.6-3.1c2.3-2.3 5.7-2.8 6.7-1.1q1.5 2.4 6-1.8c2.7-2.5 2.8-2.8 1-3.1-1-.2-2.5-.8-3.2-1.3-1.7-1.4-3.4 0-2.7 2.2.6 2.1-.5 2.6-2.2.9q-1.1-1-4 1.3a22 22 0 0 1-4.6 3q-1.8.7-1.8 4.1 0 3.6-1.7 4-1.3.4 1.4.5 3.1.3 4.6-2.2m23.4-3c3.6-3.5 4-6.6 1-6.6-2 0-5 3.6-3.7 4.4 1.7 1.1 1.2 3.2-1.2 4.3q-2 1-1 1.2c.7 0 2.9-1.5 4.9-3.4m-18.5-.4q1.9-2.3-.4-.4-2.6 2-1.4 2.2.5-.1 1.8-1.8m31.7-12.6q1.5-1.4-.1-2-1.2-.3-1.3 1.5c0 2.2 0 2.2 1.4.5m-839.9-1.6q0-1-1-1a1 1 0 0 0-1 1q.1.9 1 1 1-.1 1-1m845.4-6q-.6-.4-1 .7a2 2 0 0 1-2 1.3c-1.5 0-1.8 1.2-.6 2.4q.8.5 2.5-1.5c1-1.2 1.5-2.5 1.1-2.8m-827.1 1.4c-1.3-.9-2.8-1.2-3.5-.8q-1.2.8 1.3 1.5 5.8 1.7 2.2-.7m-27.3-4q0-1.4-1-1-.8.7-.4 1.6 1.3 2 1.4-.6m856-4c0-1.2-2.8-.3-3.3 1q-.9 1.9 1.4.5c1-.5 2-1.2 2-1.5m-861.3-1c1.6-1.6 1.8-1.4-3.2-3-1.7-.5-1.8 0-.4 2.6 1.2 2.3 1.6 2.4 3.6.4m22-1.5a13 13 0 0 1-2.7-4c0-1.9-1.7-.9-2.3 1.3-.9 3.3.7 4.6 6.7 5.6q.5-.2-1.8-3m848.8-1q.5-.9-.3-1-1 .1-1.7 1-.4 1 .4 1 1 0 1.6-1m-877-7.1c-.2-1.7-1-3.9-1.9-4.7-1.3-1.4-1.7-1.3-3.5.3-2 1.8-2 1.8.2 4.6 3.2 4 5.8 3.9 5.2-.2m3.5-.3q0-.4-1-1t-1 .4q.1 1 1 1t1-.4m8-2.1q0-1.4-1-1-.8.7-.4 1.6 1.3 2 1.4-.6m874-.9q0-.4-1-1t-1 .4q.1 1 1 1t1-.4m-896-5.5q-.1-1-1.5-1t-1 1q.7.9 1.6 1 .9-.1 1-1m15.2-4.4c1.9-1.4 1.5-5.6-.4-5.6-.6 0-2-.8-3.2-1.8q-2.8-2.6-.6.1c1.3 1.7 1.3 2-.3 3.2-1.5 1-1.6 1.7-.7 3.4q1.8 3.5 5.2.7m-4.7-10.9q.9-.7-.7-.7-1.7.1-1.8 1.6.1 1.5.8.8zm-2.5-2.7q-.1-1-1.7-1-2.2-.2-.3 1c2 1.2 2 1.2 2 0m909-1.5q0-.4-1-1t-1 .4q.1 1 1 1t1-.4m-5-21.5q0-1-.4-1t-1 1q-.6.9.4 1 1-.1 1-1m5.2-8.7q2-2.2-1-.5-3.4 2-1.3 2.2 1-.2 2.3-1.7m23.4-2.5q.5-2-.8-3.5c-1.3-1.4-1.8-1.2-4.1 1.3-1.5 1.6-2.6 3.3-2.6 3.8q0 .9.6-.2c.6-1.4 4.3-1.8 4.3-.4q0 .8-1.2 2-1.7 1.7 1 .3c1.1-.6 2.4-2.1 2.8-3.3m8.5-22.1c-.1-1.2-1.5-1-2 .3q-.2 1 .9.8 1.2-.4 1.1-1.1m5.7-1.6q.4-1.2-1.2-.5c-.8.3-1.6 1-1.6 1.5 0 1.4 2.3.5 2.8-1m-992.2-3q-.6-.4-1.8.7-1.5 1.4.5.6 1.6-.7 1.3-1.3m976.7-.4c2.3.5 2.3-1.3 0-2.2q-1.6-.5-3 1c-1.6 2.3-1.6 4.5 0 2.4.7-.8 2-1.4 3-1.2m-998.7-7.8q.5-2.1-.6-3.3-1.3-1.4-.6 0 .5 1.2-.3 1.8c-1.3.8-1.4 3.6-.1 3.6.5 0 1.2-1 1.6-2.1m17.9-.8c-.5-.5-2-1.2-3.5-1.5q-3.1-.9.5.8c3.6 1.7 4.3 1.9 3 .7m-23.5-9.1q2-2 .7-2c-1.4 0-3.7 2-3.7 3.2q0 1.9 3-1.2m1033.5-5.3q-.5-1.6.4-1.7c1.1 0 .3-3.8-1-4.7-1-.6-4.9 2.4-4.9 3.7 0 .4 1 1 2 1.2q2 .5 2 3.4 0 3.2 1 1.4c.6-.9.8-2.3.5-3.3m-1034.7 1c1.7-1.6 1.5-2.8-.3-2.1-.8.3-2.3-.1-3.3-1-2.3-2.1-3.3-1.1-2 2 1.3 2.5 3.7 3 5.6 1.2m1021.7-8.4q1.3-.6 1.5-2c0-2-1.3-1.7-2.7.7q-2.3 3 1.2 1.3m5.5-5q0-1.2-1-1.3-.9.2-1 2 .1 1.8 1 1.5 1-.7 1-2.1m16.5-2.3c1.5-2.8 1.5-3-.2-3-1.3 0-1.8.7-1.8 3 0 1.6.1 3 .3 3zm-1054-2q.5-1-.9-.4c-1.7.6-2 1.4-.6 1.4q.9-.1 1.5-1m1036.7-2c.4-2.8 2.1-2.8 3.3-.2q1 2 1.6 2.2c.7 0 5.3-8 4.8-8.4l-3-1.4c-2.2-1-2.8-.9-3.2.3-.3.8-1.7 2-3 2.6-1.7.8-2.3 1.8-2.3 4 .2 3.3 1.3 3.9 1.8.8m-1025.8-2.5c-.6-1.6-2.4-2.1-2.4-.7 0 1 1.1 2.2 2.2 2.2q.6-.1.2-1.5m.6-7.2c0-1.1-.3-1.1-1.9-.2q-1.6 1.2-1.5 2c.8 1.2 3.4-.2 3.4-1.8m1032.7-4.5q-.5-1.2-.6.6 0 1.6.5 1.3.6-.7.1-2m14.8-3.8q.5-1-.3-1-1 0-1.7 1-.4.9.4 1 1-.1 1.6-1m6.5-3.1c0-2.3-2.8-2.6-3.6-.3-.7 1.6 1.4 3.6 2.8 2.7.5-.2.8-1.3.8-2.4m5.6-13.7c-1-1-1.8.5-1 1.9q.9 1.5 1.2 0 .4-1.2-.2-1.9m5-12.8c-1-3-2.1-.7-1.7 3.7l.5 4.4 1-3.2c.5-1.8.6-4 .3-4.9M97.7 839q-.4-1.2-.6.6 0 1.6.5 1.3.6-.7.1-2m1063-1.5c-.6-.7-3.7.8-3.7 1.8 0 .5 1 .4 2.1-.2q2-1 1.7-1.6M92 828c0-.4-1.3-1.1-3-1.7-2.6-1-2.8-.8-2 .7.5.9 1.2 2.5 1.5 3.6.6 1.8.6 1.8 2 0 .8-1 1.5-2.2 1.5-2.6m-16-6.5c-.4-2-1.7-4.6-2.9-5.8-1.7-1.8-2-2.7-1.1-4.8.5-1.4 1.7-2.8 2.7-3q1.8-.6-1-.6c-1.4-.1-2.7.3-2.7.9 0 .5-1.3 1-3 1-2.5 0-2.8.2-2 1.7l2.2 5c.7 1.8 2 3.3 2.8 3.3q1.8 0 .3.8c-1.7 1-.5 4.2 1.5 4.2q1.6-.1.4 1.3c-1.7 2 0 2.9 1.9 1.1 1.3-1.2 1.5-2.3 1-5m15 .7q0-1-1-1a1 1 0 0 0-1 1q.1.9 1 1 1-.1 1-1m1080-11q0-1.8-1-2-.9 0-1 .4t-.6 2 1 1.6q1.5-.2 1.6-2m5.5-5c.8-1.3-1.5-1.3-3.5 0q-1.8 1 .7 1c1.2 0 2.5-.5 2.8-1M68.8 802.8q1.6-1.6-1.3-.9c-1.4.3-2.6.9-2.6 1.4 0 1.3 2.7 1 4-.5m1108.1-4.5q-.1-2.2-2.6-1.5c-2 .8-1.6 2.4.6 2.4q1.8 0 2-.9m-1113-3c-1.5-.5-2.3.5-1.4 1.9q.7 1.3 1.5-.2.8-1.3-.1-1.7m1130-2.1q0-1-.4-1t-1 1q-.6.9.4 1 1-.1 1-1M65 791.7q-.1-1.4-2-1.5c-1 0-2 .6-2 1.5s1 1.5 2 1.5q1.9-.1 2-1.5m1113-.4c0-1.3-2.5-3.2-3.3-2.5-1.4 1.4-.6 3.4 1.3 3.4q1.8 0 2-1M79 787c0-3 0-3.1-2-1.3-2.4 2.2-2.5 3.2-.2 3.8l2 .5c.1.1.2-1.3.2-3m1102.4 1.7q.5-1.4-.3-1.5-.8 0-1.4 1.5-.5 1.4.3 1.5.7-.1 1.4-1.5m14.7-3.7c.8-1.5.7-1.8-1-1.8q-2 0-1.6 1t-2.3 1-3.4 1.8c-.5 1.7-.2 1.8 3.4.9 2.2-.6 4.4-1.8 5-2.9M77.7 772.6c-1-1-2.9.6-2.2 1.7q.7 1 1.7 0t.5-1.7m1110.2.5q0-.9-1-1-.9.2-1 1.6.1 1.4 1 1 1-.6 1-1.6m-1116.2-.8c1.6-1 .6-4.1-1.4-4.1q-1.3.1-1.4 2.5-.2 3.8 2.8 1.6m1119.7-3.1q.6-1 0-2.2c-.7-1-2.4.6-2.4 2.4 0 1.1 1.7 1 2.4-.2M70.6 762q-.4-1.2-.6.6 0 1.6.5 1.3.6-.7.1-2m-5.7-4q0-1.7-1-1.3-.9.6-1 2 .1 1.4 1 1.5c.6 0 1-1 1-2.1m1139-6.6c0-2.4-1.4-3-2.2-1-.3.8-.3 2.7 0 4.3q.6 3.7 1.3 1c.5-1.2.8-3 .9-4.3M55.4 753.8q2.4-.6-.4-.3c-1.3 0-2.6.8-2.8 1.7q-.4 1.4.4.3a6 6 0 0 1 2.8-1.7m13-3c-.4-1-.1-2.3.4-3 .8-1 .3-2.3-1.6-5.2q-5-7.3-5.8-6.2c-.6.6 2.7 8.1 3.8 8.6s1 3.2-.1 3.2c-1.4 0-2.2 4.2-1 5.6 1.5 1.9 5-.5 4.3-3m1119.9-10.6c.6-4.2.5-4.3-.7-2.2a8 8 0 0 0-.9 4.8c.6 3.1.8 2.8 1.6-2.6m17.8 2.7q-1.1-1.3.2-3.8c1-2.2 1-2.6-1.2-3.7q-4.7-2.3-3.7 2.3c.3 1.3.1 2.6-.5 3q-.9.6-1 1.6.1 1 1.7-.3c1.4-1.1 1.8-1 2.7.4q1 1.6 2 1.8.7-.1-.2-1.3M52.8 737.4c0-1-.4-2.8-.7-4.2l-.7-2.4-2.1 2.2c-2.7 3-2 6.2 1.3 6.2q2.4 0 2.2-1.8m1141.5-.7c.5-1.4-3.6-5-4.7-3.9-.6.6 2.4 5.3 3.5 5.3q.6-.1 1.2-1.4m-1146-10q-.6-1.4-1.5-1.5-.8 0-.9 1.5.1 1.4 1.5 1.5 1.5 0 1-1.5m1143.6 1c0-1-1.9-1.5-2.4-.6q-.5 1 .9 1t1.5-.4M62.8 721.8q.2-1.6-1.2-1.6c-1.9 0-3 1.6-2.1 3 .9 1.5 2.9.6 3.3-1.4m-.9-6.2q0-1.4-1-1-.8.7-.4 1.6 1.3 2 1.4-.6m-18-18c0-2 .7-3.7 1.7-4.3 2-1 1.2-4.1-1-4.1q-1.5 0-.9 2.1c.5 1.8.2 2-1.2 1.5-1.5-.6-1.7 0-1.5 3.6.3 5 .7 6 2 5.2.5-.3 1-2 1-4m11.7-9.5c-2.2-.5-3.6-3-1.7-3q1-.1-.5-2.4c-1.8-2.7-3.8-3.5-2.9-1.1.3.7-.5 2.3-1.7 3.5q-2.5 2.2-.6 1.5 1.7-.8 2.7 1.8 2 5 5.1 1.9c1.5-1.5 1.5-1.7-.4-2.2m2.3-6q0-.9-.4-1-.4.1-1 1t.4 1q1 0 1-1m-16-16.4q0-1.4-.9-1.5c-1.3 0-2.2 1.5-1.4 2.3 1.2 1.1 2.3.7 2.3-.8m1-5.6q0-.9-1-1-.9.2-1 1.6.1 1.4 1 1 1-.7 1-1.6m1158-25.4q0-.4-1-1t-1 .4q.1 1 1 1t1-.4m14-1.5q0-1-1-1a1 1 0 0 0-1 1q.1.9 1 1 1-.1 1-1m-.3-5.7c-2.5-1.4-3.5 0-1.7 2.1 1 1.2 1.5 1.2 2.5.3 1.1-1 1-1.5-.8-2.4m-9.7-3.3q-.2-.8-2-.8c-2.2.2-2.6 1.3-.7 2 1.5.6 2.7 0 2.7-1.2m7 0q0-1-1-1a1 1 0 0 0-1 1q.1.9 1 1 1-.1 1-1m3.7-12.3q-1.2-.7 0-.7c.8 0 1.3-1.2 1.3-2.5 0-6-5.2-.3-5.4 6l-.2 4.5 2.7-3.3q2.8-3.3 1.6-4m-10.7-1c0-1.6-.5-3.8-1.1-5l-1.2-2.2-.8 2.4q-.9 2.3.3 3.8 1.9 2-2.6 3.5-.8.5-.2 1.5.6 1.1 3.1 0c1.8-1 2.5-2 2.5-4m4-9.7q0-1-1-1a1 1 0 0 0-1 1q.1.9 1 1 1-.1 1-1m-4.5-5.3a9 9 0 0 0-1.7-3.2q-1-1.1-.4.8c.4 1 .6 2.5.6 3.2q.1 1.3 1.1 1.5 1-.2.4-2.3m11.2-1.8c1-3.1 1-3.5-.9-3.8q-4.3-.8-3.1 4.7c.8 4 2.5 3.6 4-1m-7.7-15.4q0-1.4-.3-1.5-.5 0-1 1.5-.5 1.3.4 1.5.9-.2 1-1.5M50.6 571q-.4-1.2-.6.6 0 1.6.5 1.3.6-.7.1-2m1150.3-1.1q-.1-.7-1.4-.7-1.4 0-.8 2 .5 2.4 1.4.8c.4-.7.8-1.7.8-2.1m-4.9-4c-1.3-1.4-1.5 1-.3 4q.8 2.4 1-.6c.3-1.3 0-2.9-.7-3.5m11.7 1.3c-.3-1 0-2.1.6-2.4q1-.4.5-1.1-.7-.7-1.8 0c-1.4.8-1.4 5.5 0 5.5.7 0 1-1 .7-2m-1160-1.3c0-1.2.3-3.3.7-4.6.6-2 .5-2.3-.8-1.8q-1.6.5-1.7-.9c0-2.1-1.3-1.8-2.8.7-1.3 2-1.2 2.4.7 4 1.2.9 2.1 2.4 2.1 3.3s.5 1.6 1 1.6q1-.2.9-2.3m1151.9-3.3-.7-2q0-.5-1 0c-1 .7-.1 3.6 1.3 3.6.5 0 .7-.8.4-1.6M45.9 550.5q-.2-1.2-2-1.3-2.3 0-1.6 1.5c.4.9.7 2.4.7 3.3 0 1.4.2 1.4 1.5-.3.8-1 1.4-2.5 1.4-3.2m2-3.6q0-2.4-2-2.5c-2.2-.1-2.3.2-1 2.8 1.5 2.6 3 2.5 3-.3m16-4.7q-.2-1-1.5-1t-1 1q.6.9 1.6 1 .9-.1 1-1M1195 531.4c1-1.8 1-2.8 0-4.8-1.7-3-2.6-3.1-3.5-.2-.6 2-.7 2-1.4.4-.6-1.4-.7 5.1-.2 13.4 0 .4 1.2-1.6 5.1-8.8M67 529.3q-.1-.7-1-2.1c-.8-1.3-1.2-1.3-2.4.5-1.9 2.5-.2 5.2 2 3.3q1.2-1 1.3-1.7m1123.4-7.1q.6-1-.4-1t-1 1q0 .9.4 1 .4-.1 1-1M68 519q0-.9-1-1-.9.2-1 1.6.1 1.4 1 1 1-.7 1-1.6m1139 .6q0-1.4-1-1.5-.7 0-.3 1.5.5 1.3 1 1.5.3-.2.3-1.5m-1.8-7.3a11 11 0 0 0-1.1-4.6c-1.3-1.3-4.2 5.3-3.2 7.2.5 1 .7 2.3.4 3q-.7 1.6 1.8-.2c2-1.3 2.3-2.4 2-5.4m-16.2 1.8q0-1.8-1.5.3c-.7 1-1.1 2.4-.8 3 .7 1 2.3-1.2 2.3-3.3M69.9 510q2-1.6 1.2-1.8c-.6 0-1.2-1-1.2-2q0-1.8-1-2-.7 0-.3 1.5.4 1.4-.7 1.5-1.1 0-.6 1.5.7 1.6-1.4 2.2c-1 .2-2 .9-2 1.3 0 1.2 3 0 6-2.2M55.3 508c-.2-.4.7-2.1 2-3.8s2.5-3.4 2.5-4c0-1.7-3-1.4-3.6.4-.3.8-1.4 1.5-2.3 1.5q-3.3 0-4.5 5c-.6 2.4-.5 2.5 2.9 2.1 2-.2 3.3-.7 3-1.2m15.3-10.9c1.2-1.6 1.8-4.9.6-3.7q-.8.4-2-.5c-1-.8-1.8-.5-3.3 1.3q-3.5 4.1-.8 5.1c1.7.6 4-.3 5.5-2.2m1122-9.2q-.6-1.2-.7.6 0 1.6.5 1.3.6-.7.1-2m-12-2q-.6-1.2-.7.6 0 1.6.5 1.3.6-.7.1-2m-1106.8-.6c0-1.7-1.8-3.5-2.9-2.8q-1.2.7.6 2.1c2.2 1.6 2.3 1.7 2.3.7m1113 .3q0-.4-1-1t-1 .4q.1 1 1 1t1-.4m8-12.2c0-2-1.9-4.5-2-2.7l-.5 3q-.4 2 1 2 1.5-.2 1.5-2.3m-3.8-8q1-1.1-1.4-2a8 8 0 0 0-2.8-.4c-.8.3.2 4.5 1.4 6 1 1.1 1.2 1 1.5-.5.2-1 .8-2.5 1.3-3.1m-4-18.1q1.9-2.3-.4-.3c-1.4 1-2.1 1.1-3 .2-1-1-.7-1.3 1-1.8q3.7-.8 1-4.5c-1.8-2.3-4.2-.2-4.3 3.7-.2 4.4 3 6 5.7 2.7m-16.2-2.2q0-1-1-1a1 1 0 0 0-1 1q.1.9 1 1 1-.1 1-1m8-20q0-1-1-1a1 1 0 0 0-1 1q.1.9 1 1 1-.1 1-1m-18.1-3c2.5-2.2 2.3-5.4-.3-4.4-2 .7-4.9 6.4-3.2 6.3.6 0 2.2-.9 3.5-2m17.1-.2q-.1-1-1.3-.5c-3 1.1-5.1-5.5-2.5-8 1.5-1.6-1-4.8-4-5.1-2.5-.3-2.5-.3-.6 1.8 1.8 2 1.8 2.3.2 5-1 1.6-1.3 3-.9 3s2 1 3.6 2.5c2.8 2.6 5.5 3.3 5.5 1.3m-8.6-17.3q.5-1.5-.9-.9t-.9 1.5c.8 1.2 1.1 1 1.8-.6m-2.1-9.6q.4-3-1.4-4.6t-1.9-.5c0 .6-.9 2-2 3.2l-2 2h2.6c2.1 0 2.5.3 2 2q-.8 2 .8 1.4c.8-.3 1.6-1.9 1.9-3.5m-21.3-11q0-.9-.4-1-.4.1-1 1t.4 1q1 0 1-1m13.4-5.8q-.6-2.6-2-1c-1.3 1-1.3 1.4.2 2.5 2.2 1.6 2.5 1.4 1.8-1.5M104.9 366.2q-.1-1-1.4-1-1.4 0-2 1-.4.9 1.4 1 1.8-.1 2-1m1045.7-6.4q-.5-1-2.3-.8c-2.4.4-2.7.8-2 2 .9 1.3 4.8.2 4.3-1.2m-14.7-6q0-.6-1-1.1t-1 .4q.1 1 1 1t1-.4m8-3.6q-.1-1-1-1c-.7 0-1-1-.7-2q.4-1.8-.3-2-.9.1-1 1.4c0 .7-.5 1.6-1.1 1.8s-.9 1-.5 1.6c1 1.4 4.6 1.6 4.6.2m-1029-3q2-1.1-.7-1c-1.2 0-2.3.4-2.3 1q0 1.8 3 0m1020-14c0-1.5-1.3-2-3.1-1q-1.7 1-1.4 2c.6.9 4.5.1 4.5-1m-6.9-13c-1.9-3.6-2.3-4-4-2.8-3.4 2-2.3 4.8 2.4 6.5 1.7.5 3.2.9 3.4.7.1-.1-.7-2.1-1.8-4.3m-17.6.9c-.6-1-3.5-.1-3.5 1 0 .5 1 .6 2 .3q1.8-.5 1.5-1.3m-963.1-1.5q-1.3-3-1.4.6.1 1.8 1 1.5c.5-.3.7-1.3.4-2m-9.4-.4q0-1-1-1a1 1 0 0 0-1 1q.1.9 1 1 1-.1 1-1m15-11.3c0-1.2-.5-.9-2.6 1.4-1.8 2.1-1.8 2.1.4.8 1.2-.8 2.2-1.8 2.2-2.2m962.6-6c-1.9-4-4-6.7-5-6.7q-.7.1.3 1.3c.9 1 .7 2-.8 3.9l-2 2.5 2.7 3.5 2.7 3.4 1.9-2.3c1.7-2.3 1.7-2.6.2-5.6m-11.6 4.3q0-1-1-1t-.5 1q.7.9 1.1 1 .4-.1.4-1m-941.5-4q.5-1-.9-.4c-1.7.6-2 1.4-.6 1.4q.9-.1 1.5-1m-16-4q.6-1-1-1-1.3 0-1 1 .7.9 1 1 .5-.1 1-1m22-6.5c1.2-2 1.3-2.5.3-2.5-1.7 0-3.8 2-3.8 3.7 0 2 1.7 1.5 3.5-1.2m938.4-.5c1.8 0 1.3-1.3-1.8-4.9-2.8-3.2-3-3.3-4-1.3-.9 1.7-.7 2 1.1 2.3 2.9.5 3.7 2.9 1 2.9q-3.6 0-1 2.8c1 1 1.5 1 2.4-.3q1.2-1.4 2.3-1.5m-951-5.2c1.2-1.3-.2-3.8-2.1-3.8-1 0-3.7 3-3.7 4.2s4.4.9 5.7-.4m28.1-18.7v-2.5l-2.5 2.4a7 7 0 0 0-2.5 5.8v3.5l2.5-3.3c1.4-2 2.5-4.6 2.5-6m909 3.9c0-1.3-2.6-3-3.3-2.4-.4.4-.7 1.5-.7 2.4q0 1.9 2 1.2 1.8-.4 2-1.2m-923.5-3q.5-1-.9-1-1.5 0-1.6 1 .1.9 1 1 .9-.1 1.5-1m893.5-7q0-1-.4-1t-1 1q-.6.9.4 1 1-.1 1-1m-887.3-3.5a6 6 0 0 0 .2-3c-.3-1.2-.6-1.2-2.2 0q-1.8 1.4-1.3 2.9c.7 2 2.5 2 3.3.1m21-2.8q-.5-1-.5 1.3 0 2.1.5 1.2c.3-.7.3-1.8 0-2.5m867.8.3q.6-1-.4-1t-1 1 .4 1q.4-.1 1-1m12.2-4.5c.3-.8.2-2-.2-2.5-1-1.6-3.5.7-2.8 2.5s2.3 1.9 3 0m-870.7-1.5q-.1-1-1.7-1-2.2-.2-.3 1c2 1.2 2 1.2 2 0m-1-9.8q0-2-1.5-2.2-1.3.2-1.5 1.8c0 1-.7 2.5-1.5 3.2s-2 2.1-2.6 3.1c-.7 1.5 0 1.3 3-.9q4-2.7 4.1-5m-12.6 3.3c1.5-.5 1.7-.8.6-2q-1.2-1.6-1.8-1-.4.3-1.8-.7-1.4-1.2-1.4 0 .1 1 1 1.2c1.9 0 1 2.1-1 2.7-1 .3-2 .9-2 1.3q.2.7 2.3 0zm848.6-11q-.2-.8-2-2.8-2-2.3-2-.6c0 .8.6 2 1.2 2.7 1.3 1.2 2.8 1.6 2.8.6m-844-1.5q0-1-.9-1t-1.6 1q-.4.9 1 1 1.4-.1 1.5-1m862.2-3-1.9-3.1-1.6 2.5c-2.1 3.2-2.1 3.4.7 2.8 1.3-.2 2.7 0 3.1.7q.8 1.1 1.2.7c.2-.2-.4-1.8-1.5-3.6m-6.2 0q0-1-1-1t-.5 1 1.1 1q.3-.1.4-1m-824.2-26.6q1.7.5 3-1.5c1-1.7 1-2.4-.2-4.2-1.5-2-1.5-2-5 1.7-3.3 3.6-4 7-1 4.5.7-.6 2.2-.9 3.2-.5m8.8-5.3q-.6-.4-1.8.7-1.6 1.4.5.6 1.6-.7 1.3-1.3m1.4-7.1q0-1-1-1t-.5 1 1.1 1q.3-.1.4-1m36.5-7c.7-1.1-1.8-5.4-2.7-4.5-.7.8.4 5.5 1.3 5.5q.9-.1 1.4-1m6.5-2c0-.4-.6-1.4-1.5-2q-1.6-1.5-1.5.2 0 1.4.7 2c1 1 2.3 1 2.3-.1m713.7-2.4q-.4-1.4.5-2.4c1.6-1.6-1.7-2.3-3.8-.8-1.5 1.1-1.6 1.6-.4 3 1.6 2 4.5 2 3.7.2m4.3-3.9c-.3-.1-1.7-1.3-3.2-2.7-1.5-1.3-2.8-2.1-2.8-1.8 0 1 4.3 4.8 5.4 4.8q.8 0 .6-.3m-678.5-24.7q.5-1-.4-1t-1 1q0 .9.4 1 .4-.1 1-1m608.5-9.8q.1-3-1-1.2c-1.2 2-1.2 4 0 4 .6 0 1-1.3 1-2.8m-14-7c-1-1-1.4-1-2 0-1.1 1.6-.2 2.8 1.6 2q1.7-.4.3-2m-570.6 1.2c1.8-.7 1-3.4-1-3.4q-1.2.2-1.4 2c0 2.1.2 2.2 2.4 1.4m556-7.3c1.5-1.6 1.5-2 .2-3-2-1.7-3.6-.6-3.6 2.4q0 4.4 3.4.6m-531.9-5.1q1.4-.1 2.1-1.2 1-1.2-3.4-.6c-2.3.3-4.2.2-4.2-.3q-.1-.9-1.4-1-1.5 0-1 1.6.5 1.4-.4 1.5-1.1-.1-1.2-1t-1-1q-1.3 0 0 1.4c.7.8 1 2.4.6 3.5-.6 1.8-.4 1.8 4-.5 2.5-1.3 5.2-2.4 6-2.4m-34-1c-.3-1.1-1.3-2-2.1-2q-1.4 0-1 1.2c.4.7 1 2 1.3 3 .9 2.6 2.7.5 1.9-2.1m3.1-3.8c-1-1-1.8.5-1 1.9q.9 1.5 1.2 0 .4-1.2-.2-1.9m11.2-.2c2-1.7 2.2-2 .8-2q-1.9 0-1.3-2c.7-2.4-.4-2.6-4.3-.5-2.9 1.5-3 1.6-1.3 4 2 3 2.8 3 6 .5m7.7-3q.5-1-.9-1-1.5 0-1.6 1 .1.9 1 1 .9-.1 1.5-1m547.5-2.5c0-.8-1.3-2.2-3-3-2.7-1.5-3-1.5-3 0q0 1.6 1.5 1 1.5-.5 1.5 1.5c0 1 .7 2 1.5 2q1.4-.1 1.5-1.5m-521-2.5q-.1-1-1.5-1t-1 1 1.6 1q.9-.1 1-1m8.6-.1c.4-.6 1.7-.8 3-.5q2.5.7 4.6-1.4 2-1.8 1.2-2c-.5 0-1.5.5-2.1 1.1-1.8 1.8-2.4.5-1.3-2.6q1-2.6 0-2t-1 1.9c0 .7-1.5 2-3.5 3.1-1.9 1-3.5 2.3-3.5 2.7 0 1.1 1.8 1 2.6-.3m474.4-.4q0-1.4-.3-1.5-.5 0-1 1.5-.5 1.4.4 1.5.9-.1 1-1.5m23 .5q0-1-1-1t-.5 1 1.1 1 .4-1m-27-1.5q0-.4-1-1t-1 .4q.1 1 1 1t1-.4m-496-3.5q-1.5-3.1-3.3-1.4c-.6.7 2.2 3.3 3.6 3.3q.7-.1-.3-2m523 .5c1-1.3 1-1.5-.3-1.5q-1.6 0-1.7 1.5 0 1.4.4 1.5.5-.1 1.6-1.5m-512.7-1.8 4.5-2.3c.1 0-.3-1.3-1-2.8-1.6-3.3-3.4-3.3-7.1 0-2.3 2-2.6 2.7-1.7 3.8.7.8 1 2 .6 2.5-1 1.6.1 1.3 4.7-1.2M852 99.2q0-1-.4-1t-1 1q-.5.9.4 1 1-.1 1-1m24.3-.4c.3-.7-.6-2.7-2-4.4-2.6-3.2-2.6-3.2-3.7-1q-1.3 2.2-3.1 2c-1-.1-3 0-4.3.3-2.3.5-2.3.6-.5 2q1.8 1.4 5 .8c1.8-.3 4 0 5 .5 2.4 1.4 3 1.4 3.6-.2m9.3.3c1-1.6-1.4-3.8-3.6-3.2-1.1.3-2.2.9-2.5 1.4q-.4.7 1 .2 1.5-.4 2.1 1c.7 1.9 2 2.1 3 .6M451 83.7c.4-1.6.6-3.2.3-3.4-.9-.9-4.5 3.2-4.5 5 0 3.1 3.3 1.8 4.2-1.6m393.8 1.5q0-1-1-1a1 1 0 0 0-1 1q.1.9 1 1 1-.1 1-1m-9.5-1q.5-1-.9-.4c-1.7.6-2 1.4-.6 1.4q.9-.1 1.5-1m19 0q-.6-1-2.3-1-2-.2-.2 1c2 1.2 3.3 1.2 2.5 0m-414.5-2q0-1-.4-1t-1 1q-.5.9.4 1 1-.1 1-1m359.5 0q.6-1-.4-1t-1 1 .4 1 1-1m42.5-1q0-1-1-1a1 1 0 0 0-1 1q.1.9 1 1 1-.1 1-1m-417.3-1.8c1.5-2 1.7-4.9.4-5.7-.5-.3-3 .5-5.6 1.8q-4.6 2.4-3.5 3.2 1.2.5 2.1-.7c.7-1 1.1-1 2.1 0s1 1.4-.2 2.2q-1.8 1 1 1c1.2 0 3-.8 3.7-1.8m43.3-.2q0-1-.9-1t-1.6 1q-.4.9 1 1 1.3-.1 1.5-1m319.5.2c1-.8 1.4-4.7.5-5.5-.2-.3-1.7-.8-3.2-1.1q-5-1-1.1 4.9c1.7 2.6 2.3 2.9 3.8 1.7m6.8-3.2q1 0 .5-.6c-1.1-1.1-5.6.7-5 2.1.4 1.2.7 1.2 2 0 .7-.9 1.9-1.5 2.5-1.5m7.2 1q-.6-1-1.5-1t-1 1 1.6 1q1.4-.1 1-1m-320.1-2.6q-.6-1.3-1-1-.5.5.1 1.5c1 1.6 1.6 1.3.9-.5m330.8 0q1.9-2.2-.8-1-2 .4-3.2-.7-1.8-2.3 2.3-4.5c1.8-1 1.8-1 0-2-1.1-.6-3.4-1.3-5.2-1.7-4-.9-4.2.4-1 7 2.3 4.8 5.3 6 7.9 2.8m15.7.2q1.4-1.3-.1-2.4c-1.6-1.3-10-4.3-10.6-3.8-.6.7 7.2 7.5 8.5 7.5q1.1-.1 2.2-1.3m-328.6-4.5c1-1-1.8-3.6-3-2.7-.6.3-1.2 1.4-1.5 2.5q-.7 2.1 1.5 1.5c1.2-.2 2.5-.8 3-1.3m-6.8-.1q.5-1-1-1-1.3 0-1 1 .6.9 1 1 .5-.1 1-1m300.4-4.3c-.4-2.5-2.4-2.7-7.4-.7l-3 1.2 2.5.8c1.4.4 3.8.8 5.4.9 2.3 0 2.7-.3 2.5-2.2M529 64.5c1-1 1.8-2.8 1.8-4.2v-2.6l-1.6 2.3c-.8 1.3-2.1 2-2.8 1.8q-1.2-.5-.8 2c.6 2.8 1 2.9 3.4.7m221.8.7q1.3-.9.8-1.6c-.3-.4-1.7 0-3 1-2.4 1.7-.4 2.3 2.2.6m-205.3-6.5q-.6-1.4-1.7-1.5-1 .1-.6 1.6.8 1.6-1 1c-2.5-1-3.4.3-1.6 2.2 1.7 1.8 1.8 1.8 3.6.1 1.1-1 1.7-2.5 1.3-3.4m174 3.8c.5-1.3-2.4-2.6-3.8-1.8q-.9.7.2 2c1.3 1.6 3.1 1.5 3.7-.2M521 59.7q-1.5-1.5-3-.6c-1.2.8-1.2 1.2.5 2.4 2.6 1.9 4.6.3 2.5-1.8m42 1.5q1.4-2.3-.4-1.4c-1.6.6-3 3.4-1.6 3.4.6 0 1.5-1 2-2m182 1c0-1.2-2-2.4-2.6-1.7s.5 2.7 1.7 2.7q.9-.1 1-1m-8-1c0-1.2-.7-1.2-3.5 0q-2.7.9.8.9c1.5 0 2.7-.4 2.7-1M573.5 60c.7-1.1-1.2-2.8-3.3-2.8-1 0-1 .4 0 2q2 3.3 3.3.8M707 57.8l3.5-1.6H706c-5.2 0-9.4 2.3-7 3.8.7.6 2 .6 3 .2.8-.5 3.1-1.6 5-2.4m-153.1.2c1.2-1.9 1.2-2-.3-1.5-1 .4-2.4.7-3.3.7-1.2 0-1.3.2-.3 1.5 1.7 2 2.3 1.8 3.9-.7m13.1-1q0-.7-1-.8-.9.1-1 1.5.1 1.4 1 1 1-.6 1-1.6m-74.6-3c1.6-1.1-.6-1-2.2 0q-1.3 1-.6 2.2.9 1.6 1.3-.1c.2-.8 1-1.8 1.5-2.2m232 2.3q.5-1-.8-2-1.6-1.6-.9.8.8 3.3 1.8 1.2M504.8 54c2-2 1.4-3.8-1-3.8q-4.7-.2-2.5 3c1.4 2.3 2 2.4 3.5.8m9.2-.3c.7-.9 2-1.5 2.7-1.5q1.2-.2 1.3-2.3c0-2-.3-2.3-3.5-2q-5.3.9-5.5 6.3c0 1.5 3.7 1.1 5-.5m33-1.5q-.1-1-1.5-1t-1 1q.6.9 1.6 1 .9-.1 1-1m136-1.7c2.5-.5 2.5-.5-.8-2-4.2-1.7-4.7-1.7-6.6.2-3.3 3.3-1.8 3.7 7.4 1.8m-11.5-.3q.4-1-2.9-1c-2 0-3.6.4-3.6 1s1.4 1 3 1 3.2-.5 3.5-1m-70-.9c.6-1-4-3.3-4.9-2.4q-1.5 1.7 1.2 2.6c2.8.7 3.1.7 3.7-.2m41.9-7.9q-.7-2.4 1.3-2.3t-1.3-1.9c-1.8-1-4-1.7-5.3-1.4-2.4.7-2.8 4.1-.6 5 1.7.6 2.1 4.4.5 4.4q-1 0-.5.9c.3.5 1.8.2 3.5-.8 2.3-1.3 2.8-2.1 2.4-3.9M621 43.7c-.8-2-.6-2.8 1-3.9 1.8-1.3 1.9-1.5.4-2.7-1.6-1.3-8-1.4-10-.1-.5.3-1.6.6-2.5.6q-1.5 0-1.5 3c0 2.8.3 3 3.1 2.8q3.1-.2 4.4 1.2c.7.9 2.3 1.6 3.6 1.6 2.1 0 2.3-.3 1.5-2.5m-10-3.5q0-1 1-1t.4 1q-.6.9-1 1-.5-.1-.5-1m107.7 4.3q-.7-.4-2 0-1 .4.7.6 1.6 0 1.3-.6m-65.3-6.3q-.6-1-2-1t-1.5 1c0 .5 1 1 2.1 1q1.8-.1 1.4-1M616 1177.8c-.3-.3-5.7-.6-12-.7a496 496 0 0 1-81-10 479 479 0 0 1-47.5-12 563 563 0 0 1-330.7-265 616 616 0 0 1-33.8-72.4C80.7 733.9 71 659 79.5 576.2A690 690 0 0 1 92 502.7 576.7 576.7 0 0 1 244 237.1a542 542 0 0 1 143.5-103.4c13-6.7 18.6-8.9 19.9-7.6 1.7 1.7 3.6 1.2 3.6-1 0-1.5 1.4-2.7 5.3-4.4 2.9-1.3 5.6-2.1 6-1.9q1.9 1.2-1.3 4.4c-1.2 1.2-1.9 2.4-1.6 2.7.3.2 1.7-.8 3-2.4l2.5-2.8 2.1 2.2c1.2 1.3 2 2.7 1.6 3.1-.3.5-4 2.3-8.3 4.1-8 3.4-16.8 7.4-21.5 9.8-1.5.7-3.2 1-3.8.7q-1-.3-1.6 1c-.3 1-3.6 3-7.2 4.8-3.7 1.7-8.3 4.1-10.4 5.4q-7.5 4.7-6.5-.1.5-2.6-1-2.5c-1.1 0-1.3.7-.8 3.4.6 3.1.3 3.6-2.4 5-4 2.1-4.2 2-2.5-2s1.8-4-3-2c-4.1 1.8-4.3 2.2-1.6 4.4 2.6 2.1 1.8 3.2-5.2 7.1-5.4 3-5.8 3.1-5.8 1.2a6 6 0 0 1 1.7-3.6c2.6-2.7 1-2.6-2 .1q-3 2.5-3 5.2c0 2.3-1.6 3.8-11 10.1a666 666 0 0 0-44 32.9c-6.2 5.1-8 6.2-8.7 5q-.9-1.1-1-.3l-.3 2c0 .6-10.1 11-22.3 23a540 540 0 0 0-92.1 117 519 519 0 0 0-72.2 207c-3.6 28.6-4 33.8-4.6 60.5a438 438 0 0 0 5.1 76l1.5 10.5a204 204 0 0 0 4.3 25A525 525 0 0 0 176.4 922a493 493 0 0 0 42.1 55.2c15.8 17.8 60 62 62.3 62 .4 0 3.5 2.7 7 6a44 44 0 0 0 7.4 6c1.8 0 16.7 12.3 16 13.2q-.4 1 .5.4c.6-.4 8 3.8 16.3 9.3s20.4 13.2 26.8 17c12 7 37.7 21 38.6 21a546.4 546.4 0 0 0 125.3 43.5c2.9.4 5.5 1.2 5.8 1.7q.6.8 1.5.3c1.1-.7 13 1.5 13 2.4 0 .4 1.9.7 4.2.8 2.3 0 11.4 1 20.2 2.2 26.9 3.5 58.5 4.7 87.2 3.3 13.7-.6 26.2-1.4 27.8-1.6l18-2.5a544 544 0 0 0 278.5-124 807 807 0 0 0 63.5-63c32-37.8 64-89 83.1-132.5a719 719 0 0 0 22.8-61.2c15.7-55.8 21.9-98 22-150.3 0-42.8-5-84.6-15.4-126.5l-4.5-18.4c-1-4-6.9-23-8-25.6s-7-19-8-22.4c-.2-.7.5-2.2 1.6-3.5 2-2.1 2-2.1 3.6-.2 1.2 1.7 1.6 1.8 2.3.6q1-1.5 1.9-.5c.8.9 4.8 11 5.7 14.5l3.5 10a537.4 537.4 0 0 1 28 196 527 527 0 0 1-33.6 162 561 561 0 0 1-102.1 171.5 579 579 0 0 1-210.9 149.2 571 571 0 0 1-153.4 37.9 588 588 0 0 1-61 2m-6-6.8q0-.8-1-.3t-1 1.6q.1.8 1 .4 1-.7 1-1.7m95.1-5.3q-.2-1-2-1.4-2.2-.4-1.4 1.3c.6 1.7 3.5 1.8 3.4 0m9.4.5c.8-1.3-.5-1.3-2.5 0q-1.9 1.1.2 1 1.7-.1 2.3-1m-175.5-1.6q-1.2-1.3-1.7-1c-.7.7.7 2.6 2 2.6q.9 0-.3-1.6m16 .6q0-1-.4-1t-1 1q-.5.9.4 1 1-.1 1-1m166.5 0q.4-.9-.4-1.5-1-.5-1 .9 0 2.6 1.4.6m-188.5-2.4q-.2-.5-1.5-1t-1 .4c.6 1 2.5 1.4 2.5.6m-17.5-1.6q.5-1-1-1-1.3 0-1 1 .6.9 1 1 .5-.1 1-1m-40-12q-.6-1-1.6-1-.8 0-.4 1 .7.9 1.7 1 .8-.1.3-1m-168.3-82.3q-1.1-1-1.2-.1c0 1.3 1.2 2.5 1.9 1.8q.4-.5-.7-1.7m-13.3-12.7a6 6 0 0 0-3.6-2.3q-2.7-.7-1 1a13 13 0 0 0 5.5 3.2q.1-.1-1-1.9m-12.5-9.5c-.5-1.5-5.3-5-5.9-4.4-.5.6 2 3.4 4 4.6 2.6 1.5 2.6 1.5 2-.2m-88-91c-.6-1.7-2.4-2.1-2.4-.6q-.2 1 2.8 2 .1-.1-.4-1.4m-32.4-48q0-.4-1-1t-1 .4q.1 1 1 1t1-.4m952.5-29.5q.6-1-.4-1t-1 1q0 .9.4 1 .4-.1 1-1m3.4-10.6q-.7-.3-1.3 1.3-.8 2 .6.5 1.1-1.2.7-1.8M113.9 807.2q0-1-1-1a1 1 0 0 0-1 1q.1.9 1 1 1-.1 1-1m-13.4-44.8c-1-1-1.8.5-1 1.9q.9 1.5 1.2 0 .4-1.2-.2-1.9M1158 506.7q0-.4-1-1t-1 .4q.1 1 1 1t1-.4m-5-23.8q0-.6-1-.7c-.5 0-1 1-1 2.2q0 2.6 1 .8 1-1.5 1-2.3m-3.8-6.4q-1.9-2.8-.5 1.1.6 1.5 1 1.2.3-.6-.5-2.3M192.9 305.2q0-1-.4-1t-1 1q-.5.9.4 1 1-.1 1-1m185.5-160q.5-1-.9-1-1.5 0-1.6 1 .1.9 1 1 .9-.1 1.5-1m15.4-7.6c1 .6 2.7-1.2 1.8-2-.6-.7-6.3 2.2-7.2 3.6q-.4 1 1.9-.5c1.4-1 3-1.4 3.5-1.1m9.1-5.1q-.2-.3-2-.3c-1.5 0-2 .6-2 2.6v2.7l2-2.3c1.1-1.3 2-2.5 2-2.7m12.8-5q-.7-.5-2 0-1 .5.7.6t1.3-.6m429.2 1028.7q.1-1 1.5-1t1.5 1q0 .9-1.5 1-1.4-.1-1.5-1m-448.7-8.7c-2.3-1.6-3-4.3-1.2-4.3 1.7 0 7 3 7 3.9q-.2.8-1.6 1.4c-2 .8-1.5.9-4.2-1m220.9-15q-11.2-5.8-12-17.4c-.5-8 1.7-13.8 7.1-18.5 15.1-12.9 38-.3 35.4 19.3a22 22 0 0 1-19.9 19c-4.5.4-6 0-10.6-2.4m9.8-22.3q0-1-.4-1t-1 1q-.5.9.4 1 1-.1 1-1m-5-10.2q-.2-3.3-4.4-.3c-1.7 1.3-1.7 1.5-.2 1.5q1.5.1 1.6 1.6-.2 2 1.5.4c.9-.7 1.5-2.1 1.5-3.2m9.9 0q2.3-3.7-1.7-2.4-2 .6-1.4 2.6.8 3.8 3-.1m-101.9 17.4c-37-8-77.1-20.7-105.5-33.7a518 518 0 0 1-98-59.3c-10.5-8.2-12.1-10.8-8.9-14.3 3.5-3.8 6.7-2.6 21.2 8.4a472 472 0 0 0 197.2 87.4c5.2 1 7.8 4.2 6.7 8.5-1 3.7-4.8 4.7-12.7 3m2.5-5.9c.2-.7-.4-1.8-1.5-2.4-1.5-.8-2.4-.7-3.6.5-.8.9-2 1.6-2.7 1.6q-1.2 0 .1.8c2 1.3 7.1 1 7.7-.5m-12.5-3.8q0-1.4-1-2-.9-.4-1 1.4.1 1.8 1 2 1-.1 1-1.4m-113.5-38.5q.6-1-1-1-1.3 0-1 1 .7.9 1 1 .5-.1 1-1m4.5-.5c-.6-.9-1.6-1.5-2.1-1.5-1.2 0 1.3 2.9 2.5 3q.7-.2-.4-1.5m-23.5-12.8c-1.4-2.8-2.1-3.3-5.4-3.4-3 0-3.8.2-3.3 1.4q.5 1.4 2.7.8c1.7-.4 2.5 0 3.4 2 .6 1.3 1.8 2.5 2.6 2.5 1.3 0 1.3-.4 0-3.3m-20-11.2q-.6-1.4-1-1.5-.5 0-.5 1.5.1 1.3 1 1.5.8-.2.4-1.5m344 72c-3-3-3-4.6-.7-7.5 1.3-1.6 4.2-2.6 11.3-4 14.6-2.9 37-8.6 51.7-13.2a60 60 0 0 1 14-3.4c.4.4-.7 2-2.5 3.6s-3.3 3-3.3 3.3c0 1.2 5.3-.9 6-2.4.6-1 2-2.1 3-2.4q2.2-.6 1.5-2.9c-.5-2 .1-2.5 4.7-4.1 39.8-14 90.8-43 126.8-72q7.6-6 11.5-1.6c3.6 4 1.9 6.8-10 15.8a533 533 0 0 1-108 62.8 498 498 0 0 1-103 30.5c-.3 0-1.7-1.2-3-2.5m6-5.4c-.6-.6-2.5 1-2.5 2q.2.8 1.4-.4 1.3-1.2 1.1-1.6m82-22.3c-.8-1.3-2.5 0-2.5 1.8q-.1 2 1.5.4 1.4-1.2 1-2.2m20.5-7.5q0-.3-1.5-.3-1.3 0-1.5 1 .2.8 1.5.3t1.5-1M273.4 969.4c-26.3-30-53-69.3-70.6-103.7a508 508 0 0 1-54.4-178.5c-2.3-18.5-3-64-1.2-82.3l1.3-13.7-5-3.2a64 64 0 0 1-25.2-31.8 88 88 0 0 1 .1-36.8c1.6-5.6 2-6.2 4-5.7 6.6 2 15.2 10.5 20.2 20a76 76 0 0 1 7.5 32.9c0 9.4.1 9.7 1 4.6a272 272 0 0 1 3.4-19c.3-2 2.1-10.5 4.1-19l4-17.8c.4-1.3 0-5-.6-8.2a115 115 0 0 1-1.2-16.7 59 59 0 0 1 16.8-43.3c6.1-6.7 13.9-12.6 14.7-11.2.3.4 1.5 4.1 2.6 8.2 6 21.6-1.3 45.4-20 65.6-5.1 5.4-6 6.8-7.4 13.5a415 415 0 0 0-8.2 43.9 500.7 500.7 0 0 0-5.5 60c-.6 34.2.9 52.8 2.5 32q2-25.6 18-41.6c6.7-6.5 16.2-12.4 20-12.4 2.5 0 3 4 1.7 14.1a71 71 0 0 1-36.5 56.5l-3.8 1.9.6 9c.7 9.5.8 10.7 3.3 25l2.5 15c1 5.9 6.8 30.7 7.3 31.3.2.1.2-6.2 0-14-.3-10.4 0-16.1 1-20.6a65 65 0 0 1 14-26.8c4.8-4.8 14.1-11.2 15-10.2 1.2 1.1 2.5 12 2.5 20.4 0 21.6-8.3 40.6-24 54.6l-6.2 5.5 2.7 8.9a434 434 0 0 0 25.2 65c.2-.1-.6-4.5-1.8-9.7-4.4-19.5-2.4-37 5.7-50.5 5.5-9.1 13.5-16.8 15.5-14.8.5.6 2.1 5.4 3.5 11a72 72 0 0 1-14.2 65.8l-5.2 6.2 4.8 10c2.6 5.4 7.9 15.3 11.7 21.9a576 576 0 0 0 23.9 37.5q.8 0-4.1-14a73 73 0 0 1-5.5-28.4c0-12.5 4.8-24.2 13-32l3-3 3.4 7.4c5.6 12.6 7.7 23 7.2 36.5-.5 12-2.3 19-8 31l-4.3 9.2 7.5 9.9a687 687 0 0 0 33.2 40c0 .5-6.4 3.4-7.4 3.4-.3 0-4-4-8.1-8.8m9 2.8q-.6-1-1.6-1-.8 0-.4 1 .7.9 1.7 1 .8-.1.3-1m-5.5-7q0-1-1-1a1 1 0 0 0-1 1q.1.9 1 1 1-.1 1-1m-17.2-20q-1.2-1.8-2.2-2-.6.2 1 2l2.1 2c.2 0-.2-1-.9-2m-8.5-67c-1.2-.6-2.3-1.4-2.3-2q0-1-1-1t0 2a4 4 0 0 0 3.3 1.9h2.2zm-32.3-70.7c0-1.6-2.6-1.8-3.5-.3-.3.5-1.4 1-2.4 1-1.6 0-1.7.3-.7 2.3l1 2.4 2.9-2c1.5-1.2 2.7-2.7 2.7-3.4m-11.1-5.2c-.3-1.5-.8-1.7-2.6-1-2 .7-2.2 1-1 3 2.6 4.7 4.5 3.5 3.6-2m11.1-1.1q0-1-1-1t-.5 1q.7.9 1.1 1 .3-.1.4-1m-3-.5q0-.4-1-1t-1 .4q.1 1 1 1t1-.4m-49-37q0-1.4-1-1.5-.9 0-1 1.5.1 1.3 1 1.5 1-.2 1-1.5m22-38.5q0-1-.9-1t-1.6 1q-.4.9 1 1 1.4-.1 1.5-1m3-1.7c0-.8-3.2-3.3-4.2-3.3-1.6 0-.7 2.8 1 3.3 2.8.7 3.2.7 3.2 0m-8.5-4.3q-.7-2.1-2.1-1.6c-.8.3-2.2.6-3 .6q-1.2.1-1.4 1.6 0 1.7 1.3.6 1.2-1.2 3.2.3 3.5 2.6 2-1.5m-2-71c.6-1-3.2-5.6-4-4.9-.1.2 0 1.6.2 3.1.6 2.7 2.6 3.7 3.8 1.8m-5.5-12q-.1-1.8-.8-2c-1.2 0-2.2 2.6-1.4 3.4 1.2 1.2 2.2.5 2.2-1.4m2-8.2c0-1-5.3-.5-6.2.6q-.4 1.1 1.5 2.2c1.9 1 2.5 1 3.5-.4.7-.9 1.2-2 1.2-2.4m6.9-179.4q1-2.3.2-2c-1.5 1-3.3 4.6-2.3 4.6.5 0 1.4-1.2 2-2.6m5.1-4c0-1.4-.2-1.5-1.5-.4q-1.3 1.1-1.5 1.6.2.4 1.5.4 1.4-.2 1.5-1.7M967.2 977c-1.2-.5-2.3-1.4-2.3-2s4-5.5 8.9-10.8c8.5-9.3 19.3-22.6 27.8-34.2l4.1-5.5-2-4a86 86 0 0 1-10.4-44c1.1-11.7 9-36.2 11.5-35.3a52 52 0 0 1 15.3 29.7c1.4 9.9-.3 19.9-6.2 36.4a96 96 0 0 0-3.5 10.8 403 403 0 0 0 33.2-54.7c8-15.2 8-15.6 3.4-19.8a72.3 72.3 0 0 1-15.1-67.5 34 34 0 0 1 3.8-10.8c.7-.2 4 2.2 7.3 5.4a55 55 0 0 1 14.6 26.4c1.9 7.6 1.4 22.1-1 33.5-2.5 11-2 10.7 3.4-1.5 7.6-17.6 17-43.4 21-58.3l1-3.8-8.3-8.2a73 73 0 0 1-20.7-62.7 73 73 0 0 1 1.6-10c1-1.1 8.4 4 14.5 10 12 11.8 16.2 23.8 16.1 46 0 14.7.2 14.6 4.2-3.5 3.3-15 9.5-53.7 9.5-59.7 0-.3-2-1.9-4.7-3.4a80 80 0 0 1-21.7-18.6 70 70 0 0 1-14.2-41.6c-.7-12-.7-12 9.5-7.3 15.9 7.6 27.3 26.2 30.1 49l1.2 10c.1.9.5-2.3.9-7 .9-12.3.4-40-1-58l-1.4-15.7-3.8-.5a63 63 0 0 1-32.7-21.1 87 87 0 0 1-16.7-38.5l-.7-5.4 5.4.8a53 53 0 0 1 24.1 12.3c9.7 9 19 26.7 21.2 40.2 1 5.9 2.6 8.8 2 3.5-2.2-18.5-5.1-34.7-9.1-51.5-2.4-10-2.7-10.6-8.5-17-3.3-3.5-7.7-9-9.8-12.3a71 71 0 0 1-11.3-45.6c1.7-9.6 3.2-14.2 4.7-14.8 3.6-1.3 19.8 15.2 24.8 25.2 6 11.8 8 27.4 5.4 42.2-1.7 9.3-1.7 9.4 1 20.5q6.1 26.6 8.9 44.3c.9 6 1.8 11.1 2 11.4.3.2.4-4.3.4-10-.1-23.3 4.6-37.4 16.5-49.1 5.8-5.7 11.4-8.7 12.6-6.7a60 60 0 0 1 3.8 26.6 41 41 0 0 1-3.7 19.3 68 68 0 0 1-25.6 29.5l-2.9 2 1.3 17c1.5 18.8 1 61.9-1 76.5l-2 16.5a516.2 516.2 0 0 1-115.2 258.5c-9.7 11.7-15.9 18-17.7 17.9-.9 0-2.6-.5-3.8-1m13.1-13.5q.5-1.4-.4-1-.9.6-1 1.6c0 1.4.8 1.1 1.4-.6m24.3-86.5c0-2.8 0-2.9-1.8-1.3-1.7 1.6-1.7 1.7-.1 3l1.8 1.3zm-5.7-4q0-.9-1.5-1-1.3.1-1.5 1 .2 1 1.5 1t1.5-1m63-40q0-.9-1-1-1 .1-.5 1 .7 1 1.1 1t.4-1m-18.6-18.5q-.6-1.3-1-1-.5.5.1 1.5c1 1.6 1.6 1.3.9-.5m.6-5q0-1.3-1.5-1.4-1.3-.1-1.5-1.3 0-1.2-1.3.4c-.6.9-2 1.9-3.2 2.2q-1.4.5 1.8.2c2-.2 4 0 4.3.5q1.3 2 1.4-.5m8-5.5q0-.9-1-1-.9.2-1 1.6.1 1.4 1 1 1-.6 1-1.6m-9.3-2.4q-.6-1.4-1.6-1.5-1 0 .1 2c1.4 2.1 2.4 1.8 1.5-.5m21.8-70.7c2-1 2.5-1.9 2.5-5 0-2.1-.4-3.8-1-3.8q-1 0-.5 3c.6 2.5.3 3.1-2.6 5-3.6 2.1-2.6 2.7 1.6.8m12.5-13.8q0-1-1-1t-.5 1q.7.9 1.1 1 .4-.1.4-1m2-73q0-1-1-1t-.5 1q.7.9 1.1 1 .4-.1.4-1m-3.4-10.8c-1-1-1.8.5-1 1.9q.9 1.5 1.2 0 .4-1.2-.2-1.9m-10.2-75.9q.8-1.6-1-1-1.4.6-2 .7-.4 0 .1 1 1.7 2.1 3-.7m8.6-1q0-1.3-1-.8-.8.6-.4 1.5 1.3 2 1.4-.6m45.6-13.3q-.8-.8-2-.4-3.3 1.3.5 1.4 1.8-.1 1.5-1m11.4-20q0-1-1.5-1-1.3 0-1.5 1 .2.9 1.5 1 1.4-.1 1.5-1m-67.5-64.7c.3-.9.4-1.9 0-2.1-.5-.7-3.5 1.7-3.5 2.9 0 1.5 2.8 1 3.5-.8m.8-8.4q-.9-3.8-1.8 1.6-.8 3.3.9 1.6c.8-.7 1.2-2.1 1-3.2m1-8.2q-1.2-1-1.3-.1c0 1.3 1.2 2.5 1.9 1.8q.4-.5-.7-1.7m35.7 505.4q.1-1 1-1.6 1-.5 1 .3 0 1-1 1.7-.9.4-1-.4m-5-1.7c0-1.4 5.4-8.3 6.2-7.9 1.7 1 .8 5.3-1.4 6.9-2.1 1.5-4.8 2-4.8 1m-884-20.3a62 62 0 0 1-38-31.5c-2.9-5.6-2.4-6.2 5.5-7.2a51 51 0 0 1 26.8 7.2c7 4.2 15.6 12.5 24.2 23.1 4.5 5.7 5.6 7.6 4.7 8.5-2 2-15.8 2-23.2 0m808.6.5c-1.8-1.3-1.7-1.6 3-8.3 12.4-17.5 25.2-26.8 41.7-30.4 4.6-1 6.9-1 11.2 0 3 .6 5.5 1.7 5.5 2.3 0 2.9-7.7 14.3-13.9 20.6a56 56 0 0 1-39.1 17q-6.5.3-8.4-1.2m27.4-7.6q0-1-1-1a1 1 0 0 0-1 1q.1.9 1 1 1-.1 1-1m-918.6-15c-1.8-.8-7.4-8.7-7.4-10.5 0-.4 1.3-.5 2.8-.4 2.1.3 3.3 1.5 5.5 5.5 3 5.4 2.7 6.7-.9 5.3m-8.9-6q.7-1 1.1-1 .3 0 .4 1 0 .9-1 1-1-.1-.5-1m57-48.2c-12.9-2.5-29-14-36.3-26.2a97 97 0 0 1-9.7-23.1l-.7-3.5h6c12.3 0 27.8 8.4 37.5 20.5 5.1 6.2 16.7 28.2 16.7 31.5 0 1.6-.6 2-4.2 1.8-2.3 0-6.5-.5-9.3-1m885.5 0c0-.7 3-7.4 6.7-14.8 6-12.2 7.5-14.4 15-21.8q15.7-15.7 31.3-16.5l6.5-.2-.1 4.1c-.5 10.2-13 31.3-23 38.5a65 65 0 0 1-21 10.4c-7.1 1.8-15.4 2-15.4.2m33-34.8q0-2-3 0-1.8 1 .8 1 2-.1 2.2-1m-943-50a59 59 0 0 1-25.5-15.4 64 64 0 0 1-18-42l-.8-7 4.3.6c14.5 2 31.5 17.6 39.1 35.9 2.7 6.6 9 26 9 27.9q-.1 2.4-8 0m941.4.5c-.7-1.9 4-19.2 7.5-27.6 7.6-18.1 21.8-32.3 36.2-36 7-2 8.3-1 7.5 5.3-1.2 9-4.5 21-7.9 27.7a65 65 0 0 1-24.9 25.4c-9.8 4.8-17.7 7-18.4 5.2m27.6-40q0-.4-1.5-1-1.3-.3-1.5.5.2.9 1.5 1t1.5-.4m-.5-4.5q.5-1-.3-1-1 0-1.7 1-.4.9.4 1 1-.1 1.6-1m-986.2-47a59 59 0 0 1-29.8-39.7c-1.5-7-2-22-.8-26.2.8-3 3.6-2.4 11 2.1 14.1 8.4 25 26.1 27.8 44.8a606 606 0 0 1 2.5 22.2c0 1.5-3 .6-10.7-3.3m-15.3-24.5q0-.4-1-1t-1 .4q.1 1 1 1t1-.4m6.6-6.4c-2-2-2.1 0-.3 3.2 1 2 1.2 2 1.5.3.3-1-.3-2.6-1.2-3.5m7.4-5.8q0-.3-1.5-.3-1.3 0-1.5 1 .2.8 1.5.3t1.5-1m-3-3.5q0-.8-1-.3t-1 1.6q.1.8 1 .4 1-.7 1-1.7m977.7 43.4c-1.5-2.4 3.2-29.2 6.7-38.6 5.9-15.4 21-30.8 31.6-31.9 2.2-.2 2.5.3 3.3 4.3 1.9 9.9-1 26.4-6.6 38a66 66 0 0 1-25.4 25.3c-7.5 3.8-8.8 4.2-9.6 2.9m-950.2-94.7c3.6-23.8 15.7-45.1 30.9-54 8.3-4.9 21.6-8.3 21.6-5.6 0 4.7-4.9 20.4-9.1 29-4.4 9-6.3 11.6-13.3 18.5a60 60 0 0 1-27.3 16.3l-3.5.6zm22.6-22.5c1.2-2.3 1.1-2.4-.4-1.2q-1.6 1.3-1.7 3c0 1.8.3 1.5 2-1.8m-5-4q-.1-1-.5-1t-1 1q-.5.9.4 1 1-.1 1-1m16.6-1.2q-.5-1.2-.6.6 0 1.6.5 1.3.6-.7.1-2m-11.9-5.6q-.3-1.8 2-2c3.2-.5 2.8-2-.8-2.5-3.7-.5-4.3.3-2.8 3.7q2.2 4.5 1.6.8m989.4-79.6a38 38 0 0 1-3.7-11.4c-.3-2.4 1.9-4.8 3.4-3.8a30 30 0 0 1 2.6 10.7q.1.7.8 1.4c1.2 1.2.9 3.2-.7 3.8q-1.3.4-2.4-.7m-33.2-38.2q.1-1.4 1-1 1 .7.5 1.6-1.4 2-1.5-.6m-2-3.4q.1-.9 1-1.5t1 .9q0 1.5-1 1.6-.9-.1-1-1m-11-6a15 15 0 0 1-1-3.5q0-.6-1-1.8a355 355 0 0 1-10-19.2 671 671 0 0 0-63.5-101.5c-3.2-4.3-9.6-12.1-15.2-18.7a26 26 0 0 1-5.3-7.8q0-1.4-.8-1.1c-1 .6-16.2-14.7-16.2-16.3 0-.6 1-1.1 2-1.1 2.4 0 2.7-1.6.6-2.4-.8-.3-2 .1-2.6 1-1 1.1-3.1-.4-12.8-9.5a566 566 0 0 0-70.6-57.1 544 544 0 0 0-146-70.6c-5-1.5-9.5-3-10-3.6-.5-.4-1.8-.8-2.8-.8-1.1 0-2.2-1-2.5-2-.6-2.4-2.3-2.7-2.3-.4q.2 1.7-2.2 1l-12.8-3.3c-5.7-1.5-10.6-2.8-10.8-3-1-.8 2.3-3.3 4.7-3.6l2.6-.3-2.8-1.4c-2.6-1.3-3-1.3-3.8.3-1 1.6-1.2 1.6-4.3-.3-4.3-2.6-5-2.6-4.2.4.4 1.3.3 2.6-.1 2.9-1.3.8-13.8-1.8-13.8-2.9 0-1.4-1.4-3.4-2.4-3.4-.5 0-.6 1-.3 2.1.5 2 .3 2.1-3.8 1.4a890 890 0 0 0-49.7-5.6c-15-1.2-65.5-.8-83 .7-7.5.6-9.5-.4-4.5-2.3 2.7-1.1 2.7-1.1.3-1.2-1.3-.1-3.6 1-5 2.2-2.2 2.1-11.5 4.7-16.9 4.7-2.5 0-1-3 2-4 1.7-.6 3-1.3 2.6-1.6s-2.5 0-5 .9q-4.4 1.4-4.6 3.5-.1 2.2-4 2.7l-10.1 2c-5.7 1.1-6.6 1.1-7.6-.3s-1.3-1.4-2.3.4q-1 2-6.8 3.2c-7.2 1.5-7.4 1.5-7.4-.4q0-1.5-1.7-1.3-1.7.5-1.8 2.3c0 2.2-3.9 3.6-8.5 3q-3-.3-5 1.6c-1 1-3 2-4.2 2.1-3 .2-4 .4-5.8 1.2a99 99 0 0 1-16.5 4.6c-1.1 0-2.7.6-3.4 1.3q-1.3 1.5-1.8 0c-.7-2-3.3-1.5-3.3.6 0 1.1-.9 2.2-2.1 2.5q-3.9 1-3.9-2c0-2.2-4-1.6-8.2 1.3-2.9 2-3.5 3-2.7 4 .9 1 .3 1.6-2.6 2.8-4.5 1.9-5.1 2-5.8.2-.2-.7.6-2.5 2-4 2.4-2.6 1-4-1.4-1.5q-1.2 1.3-2.8-.1-1.3-1.3-.7-2.1c2.4-2.4 50-18.3 64.2-21.4l11.5-2.7 7.5-1.5a518.4 518.4 0 0 1 69.1-12c18.4-2.1 78-2.5 94-.6l20 2.4c24.2 2.7 45.7 7 80 16.2 73.3 19.7 150.8 62.2 213.4 117a593 593 0 0 1 92.2 105.2c18 26.8 46.3 77.9 46.3 83.4 0 1.2 1 3.4 2 4.8 1.2 1.4 1.8 3.3 1.5 4.3q-.4 1.7.7 2.5 1.2.7-.7 2.1c-1.4 1-1.6 1.6-.7 2.6 1.6 1.5 1.6 2.3-.3 4.2-2.3 2.3-3.4 2-4.6-1.4m-.3-10.2q-.5-1.2-.6.6 0 1.6.5 1.3.6-.7.1-2m-.7-2.8q0-1-1-1t-.5 1q.7.9 1.1 1 .4-.1.4-1m-49.5-89.5c-1.5-2.2-3.5-3.4-3.5-2.1l-.5 1.9q-.5 1.5 1.2 2c4 1 4.4.7 2.8-1.8m-10.3-13.9a10 10 0 0 1-1.5-4.3c-.4-4.3-1.4-5.3-5-5.3-3 0-3.3.2-2.9 2.8s2 4 6.5 5.7q1.6.6 1.7 1.6 0 .8 1.2.9t0-1.4m-17.2-22.5q0-.9-1.5-1.5c-1.5-.6-2 .5-.8 1.7 1 1 2.3.8 2.3-.2m-11.4-14.3c-1-.6-3.2-2.6-4.8-4.5-3.7-4.2-5-4.3-3-.3a11 11 0 0 0 4.6 4.4c3.8 1.7 5.9 2 3.2.4M984 219.7q0-.4-1-1t-1 .4q.1 1 1 1t1-.4M453.4 112.2q.5-1-.3-1-1 0-1.7 1-.4.9.4 1 1-.1 1.6-1m350.5.5q0-.4-1-1t-1 .4q.1 1 1 1t1-.4M465.1 109q1.6-2.8-.5-.9-1.6 1.4-1.7 2.3.2 2.2 2.2-1.4m325.3-.7q-.6-1-1.6-1-.8 0-.4 1 .7.9 1.7 1 .8-.1.3-1m-17-3c.6-1-2.2-3.6-3-2.8-.7.7.6 3.8 1.6 3.8q.8 0 1.4-1m7.5 0q-.2-1-2.2-1-2.6-.1-.8 1 3 1.8 3 0m-299-4q0-1-.4-1t-1 1q-.5.9.4 1 1-.1 1-1m11.5-1q.5-1-.4-1t-1 1q0 .9.4 1 .4-.1 1-1m25-7q.5-1-1.3-1c-1.1 0-2.3.4-2.7 1q-.3.9 1.4 1c1.1 0 2.3-.5 2.6-1m21.4-2.7q-1.7-1.5-3-.8-1.4.8.7 1.6 4.8 1.9 2.3-.8m39.1-5.3q0-1-1-1t-.5 1 1.1 1 .4-1m57.2-1.8q-1-.4-.6-1.3c1-1.5-3.9-1-6 .6s-2.4 1.5 3.6 1.9q1.6 0 2.5.9.8.6 1.2-.5t-.7-1.6m-9.8-1.7q-.6-1.4-1.6-1-.9.7.4 1.6c1.8 1.1 1.9 1 1.2-.6M1154 408.2q.1-1 1-1t1 1q0 .9-1 1a1 1 0 0 1-1-1m-941.5-27.4a22 22 0 0 1-11.4-18.1c0-1.1 1-4.3 2.3-7A18 18 0 0 1 233 350q9.5 9.6 3.3 22a18.4 18.4 0 0 1-23.9 8.8m19-8.6c-.3-.6-1.3-1-2.2-1q-2.1-.2.3 1.4 3.3 2.2 2-.4m793.8 8c-7.4-4.6-11.6-14.4-9.2-21.8 3.3-10.5 12.8-16 22.7-13.3 17.4 4.7 19 28.7 2.5 35.6-5 2-12.1 1.8-16-.5m10.7-3q0-1-1-1a1 1 0 0 0-1 1q.1.9 1 1 1-.1 1-1m-7-3.2q-.2-.7-2 .2-1.7 1-1.4 2c.7 1.2 3.4-.7 3.4-2.2m-4-1.8c1.4-2.6 1.4-2.6-1.1-2.8-1.2 0-2.8.6-3.5 1.6-1 1.4-1 1.8.5 2.3 2.6 1 3 1 4.1-1m21.5 1c.6-1-1.6-4-2.9-4q-.5.1-.6 2.5c0 2.5 2.3 3.4 3.5 1.4M219 235.1q.1-.9 1-1.5t1 .9-1 1.6q-.9-.1-1-1m-14.5-20.1c-.4-.6-.1-2.2.6-3.5 1-1.9 2.1-2.4 4.7-2.4h3.4l-3.3 3.5c-3.5 3.7-4.4 4-5.4 2.4m42-8.7c-.5-2.1-.1-3.1 1.6-4.5 4.8-3.9 8.1.7 3.6 4.9-3.3 3-4.3 3-5.1-.4m8-5.7c-.4-.8-.1-2.3.5-3.5.6-1.1.9-2.5.6-3-.7-1 3.3-3.5 4.2-2.6.3.3-.3 1.5-1.3 2.6-1.8 2-1.8 2 .4 2.6 2.6.7 2.7 1.5.3 3.7q-3.4 3-4.8.2m187-80.5q.7-1 1.7-1 .8 0 .3 1t-1.6 1q-.8-.1-.4-1m4.5-2q.1-1 1.5-1t1.5 1q0 .9-1.5 1-1.4-.1-1.5-1" style="fill:#000"/><path d="M545.3 154.4h-26.6l-.2 1.4.7.1q2.8.3 2.8 2.6l-.2 2L518 181c-.7 3.3-1.6 4.3-4.3 4.6l-.8.1-.2 1.4h13.8l.3-1.4h-1q-3.3-.2-3.2-2.7 0-.8.2-2l1.8-10h3.6q2.8 0 3.8 1.2a6 6 0 0 1 1 3.5v1.4h1.5l2.6-14h-1.6l-.1.3-.8 2.3q-.2.6-1 1.7c-1.2 1.3-2.4 1.7-4.8 1.7H525l1.4-7.5q.6-3.1 1.3-3.8c1-1 2.2-1.3 5.5-1.3 6 0 9.8 2.5 12.4 8l1.8-.5zm12.2 9q-6 0-10.2 4.4c-2.6 2.7-4.1 6.5-4.1 10.2 0 5.7 4 9.6 10 9.6 8 0 14.3-6.4 14.3-14.4 0-6-4-9.8-10-9.8m-.3 2c1.5 0 3.3.8 4 1.7a8 8 0 0 1 1.4 5c0 2.8-1 6.7-2.3 9q-2.5 4.5-6.8 4.5-5.6-.1-5.7-7c0-3.3 1.4-7.4 3.3-10a8 8 0 0 1 6.1-3.2m38-1.6h-4.5l-3.2 17.4c-3.9 2.9-6.2 3.9-8.8 3.9q-2.9 0-3-3l.3-1.8 3-16.5h-1.8c-2.8.6-3.5.8-6.8 1l-.2 1.5h.6q2.9.4 2.8 2.5l-.1 1.2-2 10.2-.2 2.9q.1 4.4 5.4 4.5 3.3 0 6.7-1.8 2.5-1.5 3.8-2.6.7 4.2 5 4.4 3.6 0 6.7-3.6l-1.1-1q-1.7 1.9-3.5 2c-1.3 0-2.4-1.1-2.4-2.8l.4-2.7zm12.5 5.7c3.6-2.8 6-3.9 8.7-3.9q3.1.1 3.3 2.9l-.2 1.6-.2 1.2-1.4 7.6c-.5 2.4-.6 3.1-.6 4.1 0 2.6 2 4.6 4.5 4.6q3.5 0 6.2-3.3l-1-1q-1.7 1.9-2.9 1.8c-1.3 0-2.3-1.2-2.3-2.7 0-.7 0-1.2.3-2.7l1.5-7.8c.6-3 .6-3 .6-4 0-2.8-2.3-4.5-6-4.5-3.3 0-6.2 1.1-10 3.9l.5-3.5H607c-2.7.6-3.4.8-6.7 1l-.2 1.5h.5q3 .4 2.8 2.5v1.2L600 187h4.4zm50 13.5c-1.6 1.6-2.4 2-3.7 2q-2.5-.1-2.6-2.5c0-.8 0-.8.5-3.3l4.8-26.4h-2c-2.1 1-3.7 1.3-7 1.6l-.3 1.4h.8c2.3.4 3 1 3 2.6v1l-1.4 7a10 10 0 0 0-7.3-3c-7.5 0-13.9 7-13.9 15.1 0 5.5 3.3 9 8.3 9 1.8 0 4-.6 5.6-1.6 1.9-1 2.9-2.1 4.6-4.6l-.2 2c0 2.3 2 4.3 4.7 4.3q4 0 7.3-3.6zm-8.6-12.5c-1 5-1.9 7.4-3.4 9.8q-3.2 4.6-7.5 4.8-4.6-.2-4.7-5.4c0-3.9 1.3-7.9 3.6-10.9q2.6-3.1 6.5-3.2c2.4 0 4 .8 5.8 2.9zm31.2 11.2c-4.2 2.3-6.2 3-9.2 3q-6.5 0-6.5-6.3 0-.8.2-1.7c4.9-.3 7.8-.7 10.9-1.5q8-2.1 8.1-6.6c0-3-3.3-5.2-7.9-5.2-8.7 0-16.6 7.2-16.6 15.2 0 5.1 4.5 9 10.4 9q5.8 0 11.8-4.6zm-15.2-6.8c1-3 1.8-4.7 3.4-6.5q2.9-3.2 6.5-3.2c2.4 0 4.2 1.4 4.2 3.4q-.1 3-4.1 4.7c-2.3.9-6.7 1.6-10 1.6m49.3 8c-1.7 1.7-2.5 2.2-3.8 2.2q-2.4-.1-2.5-2.6c0-.8 0-.8.5-3.3l4.8-26.4h-2c-2.2 1-3.7 1.3-7 1.6l-.3 1.4h.7c2.3.4 3 1 3 2.6v1l-1.3 7a10 10 0 0 0-7.3-3c-7.6 0-14 7-14 15.1 0 5.5 3.4 9 8.4 9q2.9 0 5.6-1.6c1.8-1 2.8-2.1 4.6-4.6l-.3 2c0 2.3 2.1 4.3 4.7 4.3q4 0 7.3-3.6zm-8.7-12.4c-1 5-1.8 7.4-3.4 9.8q-3.2 4.6-7.5 4.8-4.6-.2-4.7-5.4c0-3.9 1.3-7.9 3.7-10.9q2.5-3.1 6.4-3.2 3.4-.1 5.9 2.9z" aria-label="Founded" style="font-style:italic;font-weight:300;font-size:48px;font-family:&quot;URW Bookman&quot;;-inkscape-font-specification:&quot;URW Bookman Light Italic&quot;;text-align:center;white-space:pre;stroke-width:0;stroke-dashoffset:917.099;filter:url(#a)" transform="matrix(1.70135 0 0 2.36758 -414.851 -139.575)"/><path d="M600.8 397.1h-2.3l-6 1.3-5.5.4h-.7v3.7h.6c5.3.3 5.6.5 5.5 3.5v16.2c0 2.9-.4 3.2-4.9 3.6h-1.2v4h20.6v-4h-1c-4.5-.3-5.1-.8-5.1-3.6zm32.6 19c0 6-2.9 10-7.5 10q-3 0-3.4-1.6l-.8-2.2a4 4 0 0 0-3.4-2 3.7 3.7 0 0 0-3.8 3.8c0 3.6 4.8 6.3 11.2 6.3q7 0 11.4-4Q642 422 642 413q0-8.2-3.9-12.4a15 15 0 0 0-10.8-4.1c-8.3 0-14.3 4.8-14.3 11.6 0 6.2 5 10.7 11.9 10.7q5.2 0 8.6-2.7m-6.2-15.2c3.6 0 5.8 2.5 5.8 6.5s-2.4 6.5-6.2 6.5c-3.3 0-5.5-2.5-5.5-6.6s2.3-6.4 5.9-6.4m40-3.8h-7.6c-3.6 5.6-9.1 13.1-15.6 21l1.6 3.5h13.9v1.8q0 2.2-3 2.4h-1.2v4h16.1v-4h-1.2q-3.1-.4-3-2.4v-1.8h5l2-4.6h-7zm-7.7 19.9h-8.9c5.8-7.7 7.5-10 8.9-12.4zm31.5-20.5c-4.3 0-8.2 1.6-10.7 4.5-2.6 3-4.1 7.7-4.1 12.7 0 10.3 5.6 16.7 14.6 16.7s14.6-6.6 14.6-17c0-10.2-5.7-17-14.4-17m-.2 4.4c3.6 0 5.6 4.5 5.6 12.6s-2 12.5-5.6 12.5q-5.6-.2-5.7-12.7c0-7.9 2.1-12.4 5.7-12.4" aria-label="1940" style="font-weight:600;font-size:48px;font-family:&quot;URW Bookman&quot;;-inkscape-font-specification:&quot;URW Bookman Semi-Bold&quot;;text-align:center;white-space:pre;stroke-width:0;stroke-dashoffset:917.099;filter:url(#b)" transform="matrix(5.79393 0 0 8.251 -3114.866 -2870.663)"/><path d="M521.8 770.2q4.7-2.6 4.6-6.7c0-4.9-5-8.2-12.4-8.2q-6.9 0-10.6 4a9 9 0 0 0-2.5 6q0 4.8 4.6 7-6 2.3-5.9 7.5c0 5.7 5.3 9.4 13.6 9.4 9 0 15-4.3 15-10.9q.2-5.5-6.4-8.1m-8.2-3c-2.5-1.1-3.2-1.5-3.9-2.1a3 3 0 0 1-1-2c0-2 2.2-3.4 5.3-3.4 3.6 0 6 1.7 6 4.1 0 1.8-.8 3-3.4 4.7zm1.8 9q5.2 1.9 5.1 4.4c0 2.6-2.7 4.2-7.1 4.2q-7.2-.1-7.4-5c0-2.6 1.2-4.1 4.2-5.4zm41.4-22.3H553c-.6 1.6-1.1 1.9-3 2h-16.6v18l3.8 1c1.4-2.6 4-4.4 6.7-4.4 3.4 0 6 3 6 7.2s-2.7 7.4-6.5 7.4q-3.1-.2-3.3-1.8v-.5l.3-1.4c0-2.3-1.9-4.1-4.4-4.1s-4.2 1.7-4.2 4.4c0 4.4 5.2 7.5 12.7 7.5 9 0 15-4.8 15-12.2 0-6.6-5-11.2-12.5-11.2q-5.3 0-8.9 2.6v-5.8h17.4zm31 20.6v-5.6h-9.2v-9H573v9h-9.3v5.6h9.3v9h5.6v-9zm39.2.3 6.2-9.6c2.5-3.9 4.3-5.1 7.6-5.3v-4h-14.7v4c2.8 0 3.6.3 3.6 1 0 .5-.3 1-1.3 2.8l-3.8 6.2-4-7.2c-.7-1.4-.7-1.4-.7-1.7q-.2-1 3.8-1.1v-4h-18.3v4c2.8.3 4.3 1.4 6.5 5l6.7 10.5v5.2c0 3-.5 3.6-3.3 4H614v4h17.6v-4h-1.3c-2.8-.4-3.3-1-3.3-4zm35.1 1.6c0-3.4-.4-5.4-1.2-7-2-3.3-5.8-5.3-10.4-5.3-7.4 0-12.6 5.1-12.6 12.4s5.4 12.5 13 12.5c3.7 0 7-1.2 9-3.6 1-1 1.6-1.7 2.8-3.6l-4-2q-2.8 4.1-6.3 4-5.8-.2-5.9-7.4zm-15.3-3.7q.4-4 3.6-4.2 3.2-.1 3.2 4.2zm43 10.6c-.8.9-.8.9-1.2.9q-.5 0-.8-.6l-.2-2.1V772q0-3.5-1.8-5.3-2.7-2.6-8.6-2.6c-6.2 0-10.7 2.8-10.7 6.6 0 2 1.6 3.6 3.6 3.6q3.6-.1 3.7-3.7-.1-1 .4-1.2 1-.9 2.6-.9 3 0 3 2.6v2.4q-3.9.4-7 1.3-7 2.2-7.1 7.7c0 4 3 6.5 7.6 6.5q4 0 7.6-2.4a7 7 0 0 0 5.5 2.4q3.1 0 6.1-2.4zm-10-1.1a5 5 0 0 1-3.7 1.7q-2.2-.1-2.3-2.4 0-3 6-4.1zm23.9-17.7h-3l-7.5 1.4v3.9l.9.1c2.1.3 2.7 1.1 2.6 4v6.8c0 2.9-.2 3.2-2.1 3.7l-1.4.3v4H708v-4l-1.4-.3c-2-.5-2-.8-2.1-3.7v-9.3q.9-.7 1.9-.7c.6 0 .6 0 1.7.7a4 4 0 0 0 2.4.8c2.2 0 3.8-1.6 3.8-3.7 0-2.5-1.8-4.4-4.3-4.4-2 0-3.2.5-6.3 2.8zm32.1 0h-3l-.6 1.2c-2.6-1.3-4-1.6-6.2-1.6-5.6 0-9.7 3.5-9.7 8.4q.1 6 7.7 7l3 .4q4.4.6 4.3 2.2c0 1.1-1.9 2-4.2 2q-3.2 0-5.3-1.9c-.6-.4-1-1-2.2-2.3l-3.7.8 2 8.1h3.1l.6-1.2c2.5 1.1 4 1.4 6.3 1.4 6 0 10.6-3.7 10.6-8.6q0-3-2-4.8c-1.3-1.3-2.3-1.7-5.9-2.4l-3.6-.7q-3.9-.5-3.7-2.1t3.3-1.9q3.5 0 6.2 3.7l4-.6z" aria-label="85+ Years" style="font-weight:600;font-size:48px;font-family:&quot;URW Bookman&quot;;-inkscape-font-specification:&quot;URW Bookman Semi-Bold&quot;;text-align:center;white-space:pre;stroke-width:0;stroke-dashoffset:917.099;filter:url(#c)" transform="matrix(1.76801 0 0 2.82344 -467.476 -1362.681)"/><path d="M553 894a20.3 20.3 0 0 0-20.4 20c0 8.3 5.7 14 14 14q8.5 0 14.5-6.2c3.6-3.7 5.7-8.8 5.7-14 0-8-5.7-13.7-13.8-13.7m-.6 2.3c5.5 0 9 4 9 9.9 0 4.7-1.5 10.3-3.8 13.6-2.7 3.7-6.7 6-10.8 6-5.4 0-8.9-4.1-8.9-10.4 0-4.7 1.8-10.3 4.4-13.7 2.5-3.3 6.5-5.4 10.1-5.4M580 904l.8-4.5c.5-2.4.7-3.2 1.4-4.1q.9-1.4 2.7-1.4 1.3-.2 2.2 1.6 1 1.7 2.4 1.7 2-.2 2.2-2c0-1.7-2.1-2.9-5-2.9-4 0-7.5 2-9.3 5.2-.9 1.5-1.3 3.1-1.9 6.4h-4.2l-.3 1.5h4.3l-3.2 17.8c-1.2 7.6-1.7 9.4-2.9 10.7q-1.3 1.6-3.2 1.6-1.7 0-3.2-1.8c-1.4-1.7-2-2-3.3-2q-2 .1-2.2 2c0 2 2.9 3.5 6.7 3.5q6-.1 9.1-4c1.7-2 2.3-3.8 3.3-9.2l3.3-18.6h4.9l.3-1.5zm28.2 9.5h4.5c5.5 0 9-.7 11.4-2.4a11 11 0 0 0 4.3-8.6 7 7 0 0 0-3-6.2c-2-1.3-3.7-1.6-8-1.6h-14.7l-.3 1.4h.8q2.7.4 2.7 2.7l-.2 2-3.7 20.4c-.7 3.3-1.6 4.3-4.2 4.7h-.8l-.3 1.5h13.9l.2-1.4-1.4-.1q-2.7-.2-2.8-2.6l.2-2zm.3-1.8 2.1-11.7c.4-1.7.6-2.2 1.2-2.5.8-.5 2.7-.8 4.8-.8q3.6 0 5.2 1.2a6 6 0 0 1 2 4.6c0 2.7-1.4 5.8-3.4 7.3-1.6 1.3-3.8 2-7.4 2zm30.4 11.6q-2 1.9-3.4 1.8-2.4-.1-2.6-2.6c0-.6 0-1 .4-3L638 893h-2c-2.2 1-3.7 1.3-7 1.6l-.3 1.4.8.1c2.3.3 3 .9 3 2.5l-.1 1-3.7 20.4-.4 3.3c0 2.5 2 4.5 4.4 4.5q4.2 0 7.2-3.5zM666 904h-4.4l-.5 2.5a9 9 0 0 0-7-2.9c-7.4 0-13.7 7.1-13.7 15.3 0 5.3 3.3 8.9 8.2 8.9q5.5.1 9.7-5.8v.8c0 1 .5 2.6 1.3 3.6q1.2 1.3 3.3 1.4c2.5 0 5.5-1.6 7-3.7l-1-1a5 5 0 0 1-3.5 1.8 2.5 2.5 0 0 1-2.6-2.6q0-.8.4-2.6zm-5.2 4.5a32 32 0 0 1-4 12.3c-1.7 2.8-4.7 4.7-7.3 4.7-2.7 0-4.5-2.1-4.5-5.4 0-3 1.1-6.9 2.7-9.4q3-4.8 7.5-4.8c2.3 0 3.8.7 5.6 2.6m34.8-4.5h-4.4l-3.2 17.5c-2.9 2.6-6.2 4-9 4-1.7 0-3-1.2-3-3q0-.8.3-2.3l2.9-16.2h-1.8c-2.7.7-3.5.8-6.8 1.1l-.2 1.4h.6q2.9.4 2.8 2.5l-.1 1.2-1.9 10-.2 2.9q.2 4.6 6 4.7a16 16 0 0 0 10-4.4l-.6 4c-1 5.3-4.5 8.8-8.6 8.8q-2.7 0-4.1-2.3-1-1.7-2.5-1.6-2.4.1-2.5 2c0 2 3.6 3.7 8 3.7q5.6-.1 9.9-3.2c2.4-1.9 3.5-3.8 4.1-7.3z" aria-label="Of Play" style="font-style:italic;font-weight:300;font-size:48px;font-family:&quot;URW Bookman&quot;;-inkscape-font-specification:&quot;URW Bookman Light Italic&quot;;text-align:center;white-space:pre;stroke-width:0;stroke-dashoffset:917.099;filter:url(#d)" transform="matrix(1.35541 0 0 1.83378 -205.39 -669.457)"/></svg>